<svg xmlns="http://www.w3.org/2000/svg" width="87" height="86.917"><path fill="#2B82BD" d="M85.634 42.882c0 23.193-18.799 41.99-41.987 41.99S1.66 66.076 1.66 42.882C1.66 19.695 20.459.898 43.647.898s41.987 18.804 41.987 41.984z"/><path fill="#FEFEFE" d="M69.541 55.389l-.163-.088-5.401-2.857-2.368-1.256-7.2-3.809-4.173-2.208-6.588-3.485 1.818 6.476.421 1.506 2.388 8.55.983 3.505 3.135 11.224 3.224-4.687 2.639-3.843 7.79 9.657 4.554-3.64-6.447-7.997-1.344-1.66 9.629-3.85-2.897-1.538z"/><path fill="#FEFEFE" d="M43.05 66.18c-1.169 0-3.042-2.067-4.612-6.683-.76-2.23-1.369-4.792-1.811-7.579h6.727l-1.223-4.298h-6.036c-.207-2.292-.318-4.677-.318-7.131s.111-4.839.318-7.131h13.904c.215 2.292.325 4.677.325 7.131 0 .251-.007.495-.007.746l4.335 2.258a81.115 81.115 0 0 0-.256-10.134h13.828a25.091 25.091 0 0 1 1.03 7.131c0 2.474-.36 4.867-1.03 7.131h-5.669l8.677 4.521c.214-.501.421-.996.608-1.518a1.82 1.82 0 0 0 .097-.271 29.397 29.397 0 0 0 1.701-9.863c0-3.456-.602-6.779-1.701-9.869a1.742 1.742 0 0 0-.097-.271c-4.245-11.565-15.549-19.854-28.79-19.854-13.24 0-24.545 8.289-28.789 19.853a1.201 1.201 0 0 0-.097.271 29.231 29.231 0 0 0-1.707 9.869c0 3.45.601 6.772 1.707 9.863.028.095.055.183.097.271 4.245 11.563 15.55 19.853 28.789 19.853 1.853 0 3.671-.163 5.442-.481L46.39 62.6c-1.238 2.448-2.482 3.58-3.34 3.58zm23.466-37.132H53.898c-.781-5.26-2.122-9.999-3.996-13.367 7.273 1.939 13.302 6.874 16.614 13.367zm-28.078-7.564c1.57-4.63 3.443-6.69 4.612-6.69 1.162 0 3.042 2.067 4.612 6.69.761 2.223 1.363 4.785 1.804 7.564H36.627c.436-2.779 1.052-5.341 1.811-7.564zm-2.246-5.796c-1.881 3.369-3.215 8.1-3.996 13.367H19.577c3.313-6.5 9.341-11.435 16.615-13.367zM16.846 40.49c0-2.474.353-4.867 1.024-7.131h13.827a83.914 83.914 0 0 0-.311 7.131c0 2.393.111 4.792.311 7.131H17.87a24.849 24.849 0 0 1-1.024-7.131zm2.738 11.428h12.618c.781 5.274 2.116 10.012 3.997 13.374-7.281-1.938-13.309-6.881-16.615-13.374z"/></svg>