<svg xmlns="http://www.w3.org/2000/svg" width="87" height="86.917"><linearGradient id="a" gradientUnits="userSpaceOnUse" x1="57.376" y1="231.783" x2="125.973" y2="300.381" gradientTransform="matrix(1 0 0 -1 -47.66 309.54)"><stop offset="0" stop-color="#fbbf1b"/><stop offset=".507" stop-color="#ee4639"/><stop offset=".99" stop-color="#8f4196"/></linearGradient><path fill="url(#a)" d="M44.015 85.444C67.203 85.444 86 66.646 86 43.458 86 20.271 67.203 1.473 44.015 1.473S2.029 20.271 2.029 43.458c0 23.188 18.798 41.986 41.986 41.986z"/><path fill="#FEFEFE" d="M53.251 17.19H33.885c-8.911 0-16.138 7.227-16.138 16.138v19.366c0 8.911 7.227 16.138 16.138 16.138h19.366c8.911 0 16.138-7.227 16.138-16.138V33.328c0-8.912-7.227-16.138-16.138-16.138zm11.295 35.504c0 6.229-5.067 11.297-11.296 11.297H33.885c-6.229 0-11.297-5.068-11.297-11.297V33.328c0-6.229 5.068-11.297 11.297-11.297h19.366c6.229 0 11.296 5.068 11.296 11.297v19.366z"/><path fill="#FEFEFE" d="M43.864 30.249c-7.211 0-13.058 5.847-13.058 13.059 0 7.211 5.847 13.058 13.058 13.058 7.212 0 13.059-5.847 13.059-13.058 0-7.212-5.847-13.059-13.059-13.059zm0 21.221c-4.499 0-8.162-3.663-8.162-8.162 0-4.503 3.663-8.162 8.162-8.162 4.498 0 8.162 3.659 8.162 8.162 0 4.498-3.664 8.162-8.162 8.162zm13.653-20.628a1.782 1.782 0 1 0-.002-3.564 1.782 1.782 0 0 0 .002 3.564z"/></svg>