<svg xmlns="http://www.w3.org/2000/svg" width="87" height="86.917"><path fill="#F59723" d="M43.5 85.444c23.191 0 41.987-18.798 41.987-41.986 0-23.187-18.796-41.985-41.987-41.985S1.513 20.271 1.513 43.458c0 23.188 18.796 41.986 41.987 41.986z"/><path fill="#FEFEFE" d="M43.541 45.568c7.21 0 13.064-5.85 13.064-13.066s-5.854-13.066-13.064-13.066c-7.22 0-13.074 5.85-13.074 13.066.01 7.212 5.853 13.057 13.074 13.066zm0-20.102c3.886 0 7.027 3.15 7.027 7.036s-3.141 7.036-7.027 7.036a7.037 7.037 0 1 1 0-14.072z"/><path fill="#FEFEFE" d="M56.34 51.759a5.058 5.058 0 0 0 2.274-4.221 3.64 3.64 0 0 0-2.05-3.328 3.817 3.817 0 0 0-4.018.378 15.297 15.297 0 0 1-18.021 0 3.836 3.836 0 0 0-4.018-.378 3.671 3.671 0 0 0-2.05 3.325c.01 1.7.857 3.286 2.284 4.222a23.162 23.162 0 0 0 5.885 2.814c.357.11.724.212 1.102.306l-6.078 5.94a4.03 4.03 0 0 0-.092 5.686 4.027 4.027 0 0 0 5.691.086 4.4 4.4 0 0 0 .092-.098l6.201-6.409 6.201 6.421a4.016 4.016 0 0 0 5.681.09 4.01 4.01 0 0 0-.01-5.783l-6.058-5.935c.377-.097.745-.199 1.102-.308a23.283 23.283 0 0 0 5.882-2.808z"/></svg>