<svg xmlns="http://www.w3.org/2000/svg" width="87" height="86.917"><path fill="#4D76A1" d="M43.5 85.444c23.187 0 41.986-18.798 41.986-41.986 0-23.187-18.799-41.985-41.986-41.985-23.188 0-41.986 18.798-41.986 41.985 0 23.188 18.798 41.986 41.986 41.986z"/><path fill="#FEFEFE" d="M41.914 61.873h3.295s.995-.11 1.503-.658c.468-.503.453-1.447.453-1.447s-.064-4.422 1.988-5.073c2.023-.642 4.621 4.273 7.374 6.163 2.083 1.431 3.664 1.117 3.664 1.117l7.362-.102s3.852-.238 2.025-3.266c-.15-.248-1.064-2.241-5.474-6.334-4.617-4.284-3.999-3.592 1.562-11.003 3.387-4.514 4.74-7.269 4.317-8.45-.403-1.124-2.893-.827-2.893-.827l-8.29.052s-.614-.084-1.07.189c-.444.267-.73.89-.73.89s-1.312 3.492-3.062 6.463c-3.692 6.268-5.168 6.599-5.77 6.21-1.403-.907-1.054-3.644-1.054-5.589 0-6.074.922-8.607-1.794-9.262-.901-.218-1.564-.361-3.868-.384-2.958-.031-5.461.009-6.879.704-.943.461-1.671 1.49-1.228 1.549.549.073 1.789.335 2.447 1.231.85 1.155.82 3.751.82 3.751s.487 7.15-1.14 8.039c-1.117.609-2.65-.635-5.941-6.322-1.687-2.913-2.96-6.132-2.96-6.132s-.246-.602-.683-.924c-.531-.39-1.274-.514-1.274-.514l-7.877.052s-1.182.033-1.616.547c-.387.458-.031 1.403-.031 1.403s6.167 14.429 13.15 21.699c6.403 6.666 13.674 6.228 13.674 6.228z"/></svg>