<svg xmlns="http://www.w3.org/2000/svg" width="245" height="56"><path fill="#015987" d="M27.3 1.2h190.4c14.801 0 26.8 11.999 26.8 26.8s-11.999 26.8-26.8 26.8H27.3C12.499 54.8.5 42.801.5 28S12.499 1.2 27.3 1.2z"/><path fill="#FEFEFE" d="M47.46 19.094v15.078h2.751v-6.237l5.67 6.237h3.801L52.5 26.255l6.363-7.161h-3.528l-5.124 5.754v-5.754H47.46zm12.684 0l4.599 10.227-1.932 4.851h3.003l6.027-15.078h-3.003l-2.709 6.783-3.024-6.783h-2.961zm13.895 0v15.078h2.751V22.076h6.72v12.096h2.751V19.094H74.039zm28.433 15.078V19.094h-2.751l-7.14 10.227V19.094H89.83v15.078h2.772l7.119-10.164v10.164h2.751zm2.067-15.078v2.94h4.431v12.138h2.751V22.034h4.431v-2.94h-11.613zm18.02 15.057c.693 0 1.344-.105 1.932-.336a4.731 4.731 0 0 0 1.554-.966c.441-.42.798-.903 1.05-1.47s.378-1.218.378-1.932c0-.693-.126-1.323-.357-1.89-.231-.567-.567-1.05-1.008-1.47s-.966-.735-1.575-.966c-.609-.231-1.26-.336-1.974-.336h-1.596v-5.691h-2.751v15.078h4.326l.021-.021zm-1.575-6.426h1.995c.483 0 .903.147 1.239.462s.504.735.504 1.26c0 .483-.168.903-.483 1.239-.315.336-.735.504-1.26.504h-1.995v-3.465zm14.435-8.631v15.078h4.326c.693 0 1.344-.105 1.932-.336a4.731 4.731 0 0 0 1.554-.966c.441-.42.777-.903 1.029-1.47s.378-1.218.378-1.932c0-.693-.126-1.323-.357-1.89a4.18 4.18 0 0 0-1.008-1.47 4.616 4.616 0 0 0-1.575-.966c-.609-.231-1.26-.336-1.974-.336h-1.596v-2.709h5.229v-2.982l-7.938-.021zm4.704 12.138h-1.995v-3.465h1.995c.483 0 .903.168 1.239.483s.504.735.504 1.26c0 .483-.168.903-.483 1.239-.315.336-.735.504-1.26.504v-.021zm19.812 2.94V19.094h-2.751l-7.14 10.227V19.094h-2.751v15.078h2.772l7.119-10.164v10.164h2.751zm15.003-15.078h-9.471l-.021 1.239a101.33 101.33 0 0 1-.126 4.095c-.063 1.155-.168 2.142-.315 2.961s-.315 1.491-.504 2.016c-.189.525-.42.945-.693 1.26a2.248 2.248 0 0 1-.945.672 4.03 4.03 0 0 1-1.155.231l.504 2.436c.105.063.252.126.441.168s.399.063.63.063c.777 0 1.449-.231 2.016-.714s1.05-1.176 1.428-2.1c.378-.924.672-2.058.882-3.423.21-1.365.336-2.919.399-4.683l.042-1.218h4.074v12.096h2.751l.063-15.099zm3.567 0v15.078h8.316V31.19h-5.565v-3.276h4.935v-2.982h-4.935v-2.856h5.565v-2.982h-8.316zm9.85 0v2.94h4.431v12.138h2.751V22.034h4.431v-2.94h-11.613z"/></svg>