<svg xmlns="http://www.w3.org/2000/svg" width="2063.429" height="1081.628"><path fill="#91C04D" d="M740.429 1079.29c47.832-89.577 25.009-219.936-28.407-298.588-35.692-52.921-89.592-84.48-134.753-127.933-55.6-53.649-82.551-129.145-74.296-205.371 6.798-66.029 7.77-137.157-27.922-195.66-34.478-56.319-96.877-81.566-135.967-133.03-3.156-4.126-6.07-8.497-8.983-12.866-15.54-24.761-25.251-52.192-33.021-80.837-1.456-5.583-3.156-15.051-5.341-25.004H0V1079.29h740.429zM1148.438 0c13.705 62.653 43.02 122.236 81.209 166.646 53.202 61.916 130.045 96.252 195.527 146.153 80.783 61.473 123.575 152.443 118.165 247.424-4.64 81.972-.781 169.97 52.932 239.081 51.532 66.855 237.634 103.55 243.635 279.984 4.38 4.813 223.523.71 223.523.71V0"/></svg>