<svg xmlns="http://www.w3.org/2000/svg" width="651" height="848.011"><path fill="#5AAA48" d="M652.307-2.115C651 22.902 653.833 25.89 626 129.098c-50 185.408-151 70.408-366.113 120.759-44.889-4.623-81.571 31.975-127.535 33.292C71.642 284.892 36.281 242.738-1.816 240"/><path d="M194.431 140.03l13.345 26.08c.765.463 1.522.897 2.275 1.318-3.225-11.373-8.294-20.877-15.62-27.398zm191.708 172.39c-12.968 2.132-40.523 2.307-66.502 6.993 11.354-50.476 11.418-105.927.283-130.933-29.378-65.97-56.005 9.047-109.868-21.052 14.406 50.795-8.112 139.051-32.13 167.285-23.492 27.622-53.681 40.914-78.18 67.192-23.895 25.637-44.365 63.414-60.343 98.377C12.201 559.8 16.056 622.268 48.405 672.87c16.185 25.31 37.018 45.291 49.65 75.836 14.169 34.265 15.309 72.463 20.405 109.392 50.845 1.475 115.458 19.21 165.253-.984 8.395-117.134-153.335-218.929-111.439-330.208 10.097-26.818 29.552-36.102 48.102-45.503 27.76-14.073 44.082-53.773 68.258-86.321 4.37-5.884 8.373-12.587 12.018-19.895 40.872-20.061 90.745-28.627 129.848-52.575 18.785-11.502 51.903-39.244 90.775-143.022-20.162.254-50.248 118.873-135.136 132.83z" fill="#B18130"/><path fill="#9A6B2D" d="M130.788 373.856c18.337-17.388 39.862-32.83 53.679-56.219 9.688-16.401 15.703-34.631 21.689-52.775 2.663-8.075 11.419-67.979 11.419-67.979 10.745-20.755 12.757-19.724 15.6 59.521 2.365 65.895-49.514 129.376-102.386 166.978m116.967-19.491c12.18.072 32.418-25.591 41.211-32.963 9.14-7.664 92.704-28.36 113.166-34.1-20.542 9.12-55.425 19.641-76.944 27.465-6.268 2.279-16.046 6.813-22.603 9.958 0 0-25.676 41.432-40.135 54.641"/><path fill="#9A6B2D" d="M234.64 194.998c6.637 65.412 5.294 101.106-7.743 129.41 5.531-11.637 18.962-23.115 18.015-146.234m65.804 173.704c38.452-26.091 91.887-15.306 127.688-46.921-27.31 32.968-87.74 30.377-127.688 46.921z"/><path fill="#8BC767" d="M652.307-2.115c-1.671 67.451-33.471 103.76-124.898 117.466-41.951 6.29-53.983 33.635-83.743 58.129-37.337 30.734-70.45 29.024-117.078 24.829-43.028-3.869-108.7-35.311-147.998-12.12-40.612 23.968-69.171 59.226-110.403 66.273-22.12 3.779-53.724-.302-67.24-11.189-18.157-14.626-6.624-15.701-7.162-40.258-1.453-66.246-2.276-132.429.183-198.596C1.411 1.291 8.672-4.172 12.997-11"/><path fill="#B9DB9C" d="M576.815-2.916c-.266 7.867-11.634 47.729-16.385 50.886-.431-2.551-1.166-4.485-2.293-5.312-8.7-6.373-30.214 6.903-39.706 7.748-12.204 1.086-20.376-3.162-32.177 2.528-5.097 2.456-7.262 7.233-12.304 9.377-4.158 1.768-9.201.224-13.549 2.227-10.312 4.75-12.195 10.775-24.231 12.77-12.047 1.995-35.592 4.305-14.504 12.776 7.28 2.922 29.542 2.607 33.52 10.19 2.236 4.263 1.708 9.571-.142 14.448-2.227 3.696-4.477 7.314-6.926 10.803-.162.158-.324.313-.487.461l.234-.104c-7.943 11.221-18.048 21.062-36.359 27.735-4.073-1.073-9.628.546-14.012.869-12.986.958-18.096-1.94-27.925-6.986-11.45-5.874-19.693-.257-30.956-3.56-4.404-1.291-5.734-4.938-9.829-6.762-6.652-2.963-11.385-2.553-18.705-2.912-11.853-.584-15.558-2.069-24.568-8.647-7.113-5.193-9.256-9.07-19.335-3.674-5.628 3.013-9.179 9.857-14.453 13.322-4.096 2.695-9.282 2.719-13.037 4.933-6.987 4.122-11.879 15.347-18.822 17.122l.151.026c-42.23 9.875-51.568 35.28-104.072 56.598-18.12 7.356-29.437 1.283-46.127-2.135-21.884-4.484-37.331-2.563-52.134 7.685C8.307 225.987 5.635 229.204-1.816 240c6.558 11.874 37.257 16.019 49.912 19.173 40.757 10.157 118.379-21.378 145.941-53.127l10.797-18.522c39.581 4.882 86.536 20.719 121.828 24.023 34.202 3.202 72.218 5.203 104.021-9.934 21.127-10.055 36.4-27.538 52.732-43.699 27.931-27.637 50.989-34.934 87.842-44.652 21.501-5.67 45.133-18.39 58.483-36.38 7.205-9.709 23.152-30.266 22.567-78.995l-75.492-.803z"/></svg>