<svg xmlns="http://www.w3.org/2000/svg" width="2134.5" height="1080"><path fill="#225983" d="M1158.58-1.318c-66.83 139.818 23.49 207.844 39.698 230.778 19.18 27.139 54.253 38.78 82.763 46.834 53.055 14.985 117.814 8.238 160.655 55.19 16.822 18.434 22.547 44.836 40.91 62.379 17.765 16.969 45.198 29.434 66.255 40.245 57.643 29.6 120.888 485.63 585.638 495.46V1.318"/><path fill="#FDDE93" d="M781.991 137.183c-14.341 71.281-2.487 142.189-50.307 175.907-63.936 45.082-124.542 51.461-198.502 64.391-36.013 6.299-229.432 46.702-154.979 127.515 22.629 24.565 25.023 7.562 52.734 22.485 37.314 20.097 33.345 13.12 68.177 38.403 43.674 31.702 9.126-14.561-19.378-51.605-25.596-33.264 16.214-56.96 43.864-68.431 47.252-19.603 107.164-8.012 156.962-11.806 64.067-4.882 129.092-27.937 176.063-74.748 53.237-53.057 62.672-159.086 66.715-231.768"/><path fill="#F8BE2E" d="M774.24 129.324c-13.871 71.384-3.137 142.247-48.239 176.245-60.3 45.457-117.256 52.179-186.79 65.53-33.859 6.504-248.523 59.247-179.055 139.666 21.115 24.445 64.632 29.148 90.574 43.92 34.931 19.893 70.499 40.044 103.069 65.139 40.839 31.465-38.995-74.688-65.556-111.583-23.851-33.131 15.55-57.07 41.582-68.699 44.487-19.876 100.69-8.619 147.48-12.695 60.198-5.244 121.397-28.672 165.775-75.762 50.298-53.373 59.757-159.488 63.964-232.216"/><path fill="#FDDE93" d="M689.235 330.791c-.001-.002-.001-.004 1.923-.266l1.924-.264.001.004.004.03.022.133c.02.121.053.307.101.554.096.493.252 1.225.484 2.159a64.313 64.313 0 0 0 2.483 7.715c2.479 6.35 6.791 14.666 14.116 22.553 14.559 15.674 41.343 29.989 90.428 23.097l.57 3.76c-50.183 7.045-78.323-7.571-93.873-24.311-7.728-8.321-12.267-17.082-14.873-23.759a67.882 67.882 0 0 1-2.628-8.17 45.377 45.377 0 0 1-.526-2.351 24.334 24.334 0 0 1-.147-.814l-.008-.049-.002-.015.001-.006zm3.848-.53c0-.001 0 0 0 0zm62.186-69.821a71.88 71.88 0 0 1 1.264-.931c1.266-.927 1.266-.929 1.265-.929v-.001l.001.001.009.017.047.089c.045.082.117.209.216.379.2.341.512.849.946 1.495.871 1.292 2.234 3.136 4.18 5.285 3.89 4.296 10.112 9.818 19.382 14.602 18.526 9.559 49.35 16.224 98.265 4.005l.527 3.388c-49.394 12.338-80.858 5.685-100.042-4.214-9.585-4.945-16.074-10.686-20.181-15.221-2.053-2.267-3.509-4.231-4.46-5.643a32.676 32.676 0 0 1-1.057-1.671 18.517 18.517 0 0 1-.335-.597l-.02-.038-.006-.012-.001-.004zm2.528-1.861z"/><path fill="#5AA948" d="M1205.341-38.101c-25.318 46.112-108.179 36.888-151.907 129.11-32.248 68.004-75.954 115.276-170.198 115.433-43.393.072-110.992-24.007-134.063-23.302-37.477 1.145-63.353 27.82-101.016 32.85-49.746 6.647-106.124-27.662-137.793-25.935-55.351 3.02-105.046 42.456-151.06 69.313-33.632 19.624-76.043 32.646-115.387 23.679-46.918-10.698-68.952-61.915-71.887-107.707-.388-6.06 5.433-205.562 5.7-211.325m703.077 545.448c-9.617 29.63-77.214 54.354-107.027 60.108-33.959 6.555-65.953-4.019-98.385-11.749-63.513-15.14-115.91 41.503-177.197 33.624-40.005-5.144-199.184-25.624-221.538-59.981-45.275-69.591 107.975-85.535 148.419-84.25"/><path fill="#B08131" d="M595.781 64.164c48.611 43.558-.557 163.788-36.239 206.013-28.517 33.751-65.161 49.992-94.9 82.101-29.006 31.325-53.853 77.483-73.248 120.204-33.016 72.723-28.336 149.052 10.933 210.881 19.645 30.926 44.933 55.339 60.268 92.661 17.199 41.868 37.302 184.516 43.486 229.64l200.596-1.204c10.19-143.122-204.846-363.478-153.989-499.448 12.256-32.77 35.872-44.112 58.389-55.599 33.697-17.195 53.509-65.704 82.856-105.473 46.805-63.431 59.301-204.24 37.976-252.443-36.161-81.735-68.884 13.666-136.128-27.333"/><path fill="#B08131" d="M251.303 236.257c23.018 57.641 71.497 78.761 125.355 96.354 55.69 18.189 86.057 100.385 98.945 157.521 1.384-52.239 18.013-149.221-32.679-184.236-40.764-28.161-185.046-13.483-144.437-115.749m368.281 93.632c25.304-39.451 116.181-35.986 145.523-40.843 103.042-17.053 139.562-161.99 164.036-162.301C929.14 207.44 888.94 241.336 866.138 255.391c-64.505 39.766-153.185 44.788-205.726 97.581-2.704-.167-4.55-1.432-5.531-3.797"/><path fill="#9B692D" d="M543.045 1005.665c5.568-65.349-67.962-272.09-104.157-324.959-36.922-53.933-40.129-124.089-33.225-181.145-29.377-8.124-38.895 35.65-38.18 96.363.441 37.535 19.386 68.636 39.247 99.258 42.095 64.902 99.17 228.388 99.35 310.483"/><path fill="#9A6B2E" d="M546.939 967.282c9.888-22.844-28.24-173.942-37.657-198.029-11.336-29.001-27.813-54.02-47.821-82.596 63.162 68.925 98.409 249.069 107.917 308.289m5.697-311.182c-26.858-39.811-59.261-126.816-38.231-184.635-44.996-.158-.517 157.121 38.231 184.635zm-72.747-365.759c22.259-21.245 48.387-40.115 65.159-68.693 11.76-20.04 19.061-42.316 26.326-64.485 3.233-9.865 13.862-83.06 13.862-83.06 13.043-25.36 15.485-24.101 18.937 72.726 2.871 80.517-60.104 158.083-124.284 204.029m141.984-23.819c14.785.089 39.352-31.269 50.024-40.277 11.095-9.364 112.53-34.652 137.368-41.666-24.936 11.144-67.279 23.999-93.4 33.558-7.609 2.785-19.479 8.326-27.438 12.169 0 0-33.179 49.404-46.019 69.938"/><path fill="#9A6B2E" d="M628.391 99.462c8.057 79.925 6.426 123.539-9.4 158.122 6.714-14.219 23.018-28.243 21.868-178.679m79.878 212.245c46.675-31.879 111.538-18.702 154.996-57.332-33.15 40.284-106.505 37.118-154.996 57.332z"/><path fill="#F8DF8F" d="M209.327 571.465c12.027 73.374 87.964 87.466 124.97 97.206 84.875 22.334 161.258 24.376 226.249 88.518 33.455 13.644 73.288 145.642 78.515 225.135 5.231 31.095 132.895 38.255 160.814 24.841-11.374-136.665-32.041-178.665-80.96-266.381-34.317-48.083-76.249-97.951-129.444-126.042-60.121-31.746-122.856-37.977-188.589-51.598-49.684-10.295-116.597-27.557-194.984-112.142"/><path fill="#E89692" d="M688.913 639.653c-4.703 1.429-7.726 6.922-13.003 7.246-.016-1.168 1.501-2.998 2.007-4.091.856-1.842 1.492-3.467 2.008-5.41.308-1.158.517-3.443 1.899-3.894 1.255-.407 3.612-.802 4.551-.009.634.529 2.219 3.946 2.207 4.765"/><path fill="#F8C8BE" d="M651.926 648.94c4.873-.944 21.132-5.797 24.48-10.71.752-1.101 3.504-5.922 7.629-6.968 1.656-.391 9.174 5.851 4.656 9.109-1.906 1.375-5.846-6.926-6.106-6.469-.423.741-.948 1.447-1.139 1.862-.927 2.014-.63 3.86-.683 5.978-.096 3.842-3.202 5.125-5.997 6.955-2.945 1.93-14.431 9.823-17.77 10.573-1.398.313-2.813.7-4.254.736-1.354.039-9.486-.095-11.447-1.711"/><path fill="#F5C022" d="M260.577 641.859c28.364 15.02 57.927 23.85 73.868 28.057 18.646 4.919 37.453 8.821 56.104 12.69h.001c2.924.607 5.845 1.213 8.76 1.821 33.751-21.461 44.361-53.27 46.293-80.663.594-8.42.365-16.411-.267-23.538a4662.32 4662.32 0 0 0-10.539-1.967c-12.561-2.337-25.241-4.696-38.042-7.356-22.262-4.625-48.22-10.749-77.284-24.588a133.073 133.073 0 0 1-1.234 16.319c-2.174 15.597-7.542 32.409-18.787 47.624-8.906 12.047-21.447 23.027-38.873 31.601zm-46.289-176.176c36.603 39.601 70.533 63.474 101.12 78.656-.008 5.61-.354 11.58-1.212 17.73-2.104 15.093-7.277 31.219-18.027 45.764-8.928 12.079-21.756 23.142-40.022 31.623-31.59-17.556-34.683-21.551-40.487-57.052m303.729 142.074c-34.861-20.773-74.101-30.348-114.464-38.872 32.434-22.273 42.819-54.217 44.747-81.555.579-8.213.398-16.02-.175-23.04 42.567 8.066 83.771 17.145 123.741 38.304 7.583 4.015 14.919 8.504 22.025 13.388-3.09 10.992-7.906 25.08-15.05 38.957-12.43 24.142-31.662 47.239-60.824 52.818zM598.8 635.18c-3.15 10.957-7.95 24.731-14.96 38.347-12.072 23.449-30.923 46.8-59.449 54.029 11.418 7.253 22.337 15.791 32.638 25.986 13.576 13.432 27.153 34.239 38.742 59.802 46.926 1.63 75.491-14.226 92.555-31.093a98.287 98.287 0 0 0 18.668-25.653 358.701 358.701 0 0 0-12.621-19.02c-26.406-37.099-57.632-75.329-95.573-102.398zm37.444 338.061c-5.2-21.557-30.776-137.75-38.634-155.761 46.835 1.158 75.93-14.878 93.583-32.327a102.49 102.49 0 0 0 18.287-24.488c72.3 133.94 64.999 189.471 61.859 232.774-26.127 12.586-128.158 8.557-135.095-20.198z"/><path fill="#035B87" d="M647.045 612.204c6.403-6.082.668-12.98-3.329-18.029-5.333-6.725-13.39-12.826-22.662-8.995-8.605 3.55-14.738 9.447-15.967 21.025-.478 4.521 3.143 12.65 5.913 14.288 3.901 2.302 20.725 6.559 23.537 2.809"/><path fill="#F06F5B" d="M615.39 621.161c-7.16 1.229-17.067 7.572-16.436 13.394.587 5.414 5.632 10.475 10.206 12.571 10.387-9.226 22.782 24.968 36.608 25.84 1.672.105-2.65-14.616-.736-15.144 3.28-.906 8.738-5.394 7.849-8.41-.897-3.057-3.782-6.817-5.293-9.666-1.78-3.357-4.032-7.2-7.352-9.206-2.996-1.805-6.529-2.697-9.443-4.696-3.183-2.182-5.04-5.573-8.347-7.639-3.515-2.203-3.087 2.843-7.056 2.956z"/><path fill="#E89692" d="M631.643 631.478c1.85 6.778-4.764 4.888-6.424 3.927-6.699-3.866-11.86-10.405-12.173-18.297"/><path fill="#F8C8BE" d="M644.872 604.39c3.916 10.448-5.781 23.168-14.221 27.65-6.669 3.543-12.992-4.085-15.575-9.556-1.527-3.229-6.042-15.032.729-12.995m-6.681 37.17c4.428 3.963 8.584 7.081 13.559 10.338 3.825 2.497 7.222 2.424 6.973 7.813-.16 3.459-3.824 9.137-3.143 10.729 1.424 3.332 5.22-4.509 6.089-5.814.272 2.222-1.49 11.431 1.458 12.242 2.853.781 1.238-9.24 2.405-11.079 1.923 1.34.625 12.203 3.447 12.028 2.511-.154.58-11.644 1.888-10.679 2.395 1.765 1.248 8.601 4.314 8.46 2.089-2.989-.755-9.87-1.919-12.829-1.883-4.789-4.307-9.165-8.085-12.682-1.79-1.662-15.043-12.434-17.244-13.275-4.603-1.762-8.485-.832-9.742 4.748z"/><path fill="#035B87" d="M645.838 602.351c-2.141 6.381-14.112 14.717-19.214 15.864-9.719 2.188-5.843-4.208-10.82-8.725"/></svg>