<svg xmlns="http://www.w3.org/2000/svg" width="302.985" height="586.471"><path fill="#FEFEFE" d="M246.405 27.385c3.403 9.357 3.403 19.807 0 29.164 4.618-1.702 9.478-2.552 14.582-2.552 4.982 0 9.964.85 14.582 2.552-1.702-4.618-2.552-9.6-2.552-14.582 0-5.104.85-9.964 2.552-14.582-9.478 3.403-19.807 3.403-29.164 0zm39.492 45.082l-.486-.608c-13.488-13.366-35.36-13.366-48.848 0l-.486.608-5.59-5.59.608-.486c13.366-13.488 13.366-35.36 0-48.848l-.608-.486 5.59-5.59.486.608c6.561 6.44 15.189 10.085 24.424 10.085s17.863-3.645 24.424-10.085l.486-.608 5.59 5.59-.608.486c-6.44 6.561-10.085 15.189-10.085 24.424s3.645 17.863 10.085 24.424l.608.486-5.59 5.59z"/><path fill="none" stroke="#FEFEFE" stroke-width="5" d="M41.487 82.467c8.343 0 15 6.742 15 15 0 8.343-6.657 15-15 15-8.258 0-15-6.657-15-15 0-8.258 6.742-15 15-15z"/><path fill="#FEFEFE" d="M39.246 558.783l-4.559-4.621 9.757-9.695 4.559 4.621-9.757 9.695zm-11.064 0l-9.695-9.695 4.621-4.621 9.695 9.695-4.621 4.621zm-5.074 16.2l-4.621-4.56 9.695-9.756 4.621 4.559-9.695 9.757zm21.335 0l-9.757-9.757 4.559-4.559 9.757 9.756-4.559 4.56z"/></svg>