<svg xmlns="http://www.w3.org/2000/svg" width="2312.5" height="390.166"><path fill="#015987" d="M2242.523 224.783c-6.201-12.314-68.88-56.49-95.345-71.276-44.068-24.626-90.675-33.294-148.949-24.91-44.455 6.398-77.916 32.026-115.692 66.426-28.719 26.146-56.673 47.445-102.719 48.63-61.344 1.58-111.459 8.539-172.619 25.37-36.011 9.91-187.948 71.898-213.107 130.019 37.836 8.332 867.043 8.74 870.949 20.162"/><path fill="#104A6D" d="M2130.738 250.376c-33.063-81.694-103.015-153.619-194.454-167.146 11.31 67.511 111.408 140.54 162.757 180.748"/><path fill="none" stroke="#FAFDFF" stroke-width=".248" stroke-miterlimit="10" d="M2124.7 252.392c-15.43-24.185-165.99-158.876-193.149-171.976"/><path fill="#104A6D" d="M2138.927 252.832c-1.479-7.078 2.672-21.045 2.489-30.832-.5-26.314-11.596-54.043-23.813-77.977-18.153-35.578-53.104-63.331-86.126-88.463 4.651 26.336 18.01 161.497 121.392 229.075"/><path fill="none" stroke="#FAFDFF" stroke-width=".248" stroke-miterlimit="10" d="M2031.283 53.079c15.491 20.54 30.198 42.071 42.201 64.267 21.305 38.427 42.599 77.516 49.952 119.92"/><path fill="#2882BE" d="M2012.007 359.472c3.947-58.825-51.645-111.148-78.436-154.435-9.852 52.445 5.885 125.757 36.001 165.807"/><path fill="#FBC218" d="M1981.453 362.572c-13.931-46.485-69.604-68.671-112.326-82.657 20.122 46.33 52.42 108.438 109.226 113.66"/><path fill="#B37D2C" d="M1942.719 346.428c-14.961-15.002-34.869-31.336-49.524-46.456 9.342 5.033 51.727 36.411 62.843 46.803"/><path fill="#104A6D" d="M1952.581 391.719c-11.728-31.87-90.501-62.354-123.014-62.812 14.156 31.921 80.854 71.277 113.611 64.821"/><path fill="#8CC866" d="M2234.089 233.209l-21.886 13.448 8.74-21.565c-26.863-15.109-57.835-23.736-90.817-23.736-43.843 0-86.636 17.101-118.414 42.554l14.951 33.234-28.964-20.183c-33.074 33.658-53.481 79.85-53.481 130.832 0 102.954 83.23 186.428 185.908 186.428s185.908-83.474 185.908-186.428c0-64.353-32.503-121.079-81.945-154.584z"/><path fill="none" stroke="#FFF" stroke-width="1.987" stroke-miterlimit="10" d="M2088.751 248.488c12.044 25.346 27.536 46.087 48.177 57.606m-111.02 18.856c16.195 24.476 30.759 50.584 53.42 70.165"/><path fill="#104A6D" d="M1759.738 330.284c.683-5.721-2.448-11.672-6.048-15.224-.061 6.178.316 17.692 5.956 20.487m10.892-35.42c1.785-.513 5.12-1.891 7.73-2.481-1.55 5.002-7.853 8.746-12.289 11.267"/><path fill="none" stroke="#104A6D" stroke-width="1.49" stroke-miterlimit="10" d="M1780.319 271.012c-15.502 36.325-24.66 71.622-31.758 108.581"/><path fill="#F3705A" d="M1785.571 266.724c-.49-1.599.428-3.288 2.04-3.77 1.601-.483 2.958.354 3.784 2.023.734 1.458-.734 3.381-2.346 3.864-1.612.485-2.989-.517-3.478-2.117zm-7.17 8.241c-.479-1.631.428-3.351 2.03-3.845 1.601-.49 3.386.748 3.865 2.379.479 1.631-.52 3.037-2.121 3.526-1.601.494-3.294-.43-3.774-2.06zm-6.007 4.405a2.008 2.008 0 0 1 2.641 1.074c.428 1.032-.02 1.991-1.061 2.665-.918.588-2.285-.24-2.723-1.274-.437-1.031.124-2.025 1.143-2.465zm-6.19-4.099c1.05-.435 2.264.04 2.713 1.064.438 1.022-.245 2.284-1.295 2.724-1.051.434-2.05-.125-2.499-1.145-.449-1.024.041-2.207 1.081-2.643z"/><path fill="#2882BE" d="M1774.995 419.633c10.372-43.17-38.56-90.889-64.301-119.938 10.178 38.208-2.641 118.357 60.508 118.021"/><path fill="#104A6D" d="M1801.052 413.228c-24.854-15.716-82.975-70.706-112.785-90.022-15.96-10.339-49.768-27.13-72.868-22.818 15.247 2.624 24.048 21.655 30.748 35.852 27.292 57.815 83.914 112.672 154.905 76.988zm-803.156-6.285c28.836-71.257 89.849-134 169.611-145.798-9.861 58.887-97.174 122.587-141.97 157.659"/><path fill="none" stroke="#FAFDFF" stroke-width=".248" stroke-miterlimit="10" d="M1003.161 408.697c13.455-21.09 144.785-138.58 168.477-150.006"/><path fill="#A3DCEB" d="M643.804 382.293c-9.314-41.11 41.606-105.795 83.911-112.183 26.834 38.142-53.556 109.409-87.418 112.183"/><path fill="#2882BE" d="M663.754 389.86c.648-29.596 79.277-69.39 112.183-57.387-13.159 42.487-83.557 38.326-112.183 68.177"/><path fill="#015987" d="M214.527 125.489c172-191.906 389.982-41.15 408.302-4.146 3.759 7.592 15.061 28.184 23 31.812 8.539 3.901 22.075-4.05 31.093-6.429 26.694-7.038 57.965-10.05 85.547-8.728 139.813 6.699 228.036 82.243 298.645 159.342 23.353 25.496 67.156 86.656 66.666 94.438-.937 14.9-15.399 13.962-29.992 13.962-128.08.01-943.799 23.666-947.261 15.079"/><path fill="#2882BE" d="M1007.004 391.91c13.871-28.668-28.838-67.555-47.495-84.066 13.469 32.757 8.176 86.718 58.131 86.687"/><path fill="#104A6D" d="M990.751 409.084c1.283-6.17-2.332-18.357-2.172-26.893.432-22.957 10.115-47.137 20.771-68.014 15.838-31.039 46.316-55.247 75.124-77.169-4.053 22.972-15.704 140.868-105.883 199.815"/><path fill="none" stroke="#FAFDFF" stroke-width=".248" stroke-miterlimit="10" d="M1084.644 234.844c-13.51 17.917-26.345 36.697-36.814 56.059-18.576 33.513-37.152 67.617-43.57 104.607"/><path fill="#FBC218" d="M650.496 389.432c9.132-15.43 31.499-85.31 87.707-97.905-14.208 46.893-38.848 65.189-61.457 87.35"/><path fill="#2882BE" d="M665.46 391.788c36.72-50.064 75.219-73.439 140.052-72.705-19.708 47.902-119.123 77.06-161.136 81.567"/><path fill="#B37D2C" d="M684.171 345.385c6.868-9.597 30.4-27.465 39.754-36.521-10.815 16.654-34.302 39.784-45.893 56.092m5.174-36.715c-.685-17.46 3.173-40.245 17.262-52.012-1.965 16.102-3.896 34.481-7.828 50.268"/><path fill="#104A6D" d="M658.537 251.133l-34.724 22.673 24.457-33.849a186.74 186.74 0 0 0-21.802-18.701l-23.716 16.275 10.564-25.088c-28.102-17.115-61.11-26.981-96.42-26.981-102.513 0-185.612 83.102-185.612 185.612 0 102.515 83.099 185.612 185.612 185.612 102.511 0 185.612-83.097 185.612-185.612 0-45.729-16.548-87.59-43.971-119.941z"/><path fill="none" stroke="#FFF" stroke-width="1.987" stroke-miterlimit="10" d="M563.809 277.249c-16.958 43.721-35.22 86.106-56.092 128.501m13.258-152.978c4.799 37.225 13.419 53.032 25.496 66.29m76.489 14.278c-12.898 20.927-28.376 41.855-43.853 60.171"/><path fill="none" stroke="#104A6D" stroke-width="1.49" stroke-miterlimit="10" d="M833.048 389.432c2.798-2.764 50.352-87.37 65.27-103.005M822.85 389.432c7.77-37.561 14.569-69.35 20.397-104.024"/><path fill="#104A6D" d="M838.824 309.119c2.219-7.853-6.749-17.201-13.934-20.652.5 6.496 2.891 28.535 12.735 25.139m-4.507 26.944c1.467-4.304 6.786-9.638 11.149-11.29-.932 8.026-5.102 14.451-14.278 16.318m53.835-38.397c3.133-5.558-.12-16.601-4.93-20.754-.282 7.486-5.814 19.224 2.884 24.476.534.01.834-.255.899-.796m-27.788 42.988c4.324-3.355 12.433-5.976 18.953-5.395-1.485 5.619-18.418 17.521-22.437 11.545"/><path fill="#F3705A" d="M855.074 276.341c1.085-2.006 3.567-2.74 5.546-1.641 1.976 1.104 2.44 3.222 1.614 5.63-.725 2.11-3.951 2.529-5.929 1.428-1.977-1.106-2.316-3.411-1.231-5.417zm-16.413.2c1.106-2.195 3.633-2.995 5.646-1.793 2.014 1.204 2.535 4.384 1.431 6.579-1.105 2.195-3.419 2.568-5.431 1.367-2.015-1.206-2.751-3.958-1.646-6.153zm67.347 5.224c1.234 2.782-.049 6.03-2.864 7.25-2.813 1.22-5.453 0-7.329-2.835-1.64-2.48.596-6.265 3.409-7.486 2.817-1.217 5.554.286 6.784 3.071zm7.398 13.851c1.113-.143 2.114.857 2.235 2.244.124 1.387-.591 2.366-1.792 2.784-1.05.377-2.14-1.112-2.261-2.499-.122-1.387.705-2.376 1.818-2.529zm-5.11-6.114c1.121-.152 2.126.848 2.251 2.242.122 1.394-.904 2.679-2.023 2.832-1.12.153-1.911-.887-2.034-2.272-.123-1.396.684-2.652 1.806-2.802z"/><path fill="#FEFEFE" d="M776.873 211.895c3.471 9.543 3.471 20.2 0 29.743 4.71-1.736 9.666-2.603 14.871-2.603 5.081 0 10.162.867 14.871 2.603-1.736-4.71-2.603-9.79-2.603-14.871 0-5.205.867-10.162 2.603-14.871-9.665 3.469-20.199 3.469-29.742-.001zm40.276 45.976l-.496-.62c-13.756-13.631-36.062-13.631-49.818 0l-.496.62-5.701-5.701.62-.496c13.631-13.756 13.631-36.062 0-49.817l-.62-.496 5.701-5.701.496.62c6.691 6.568 15.49 10.285 24.909 10.285 9.419 0 18.218-3.717 24.909-10.285l.496-.62 5.701 5.701-.62.496c-6.568 6.691-10.285 15.49-10.285 24.909 0 9.418 3.717 18.217 10.285 24.909l.62.496-5.701 5.7z"/></svg>