<svg xmlns="http://www.w3.org/2000/svg" width="369.87" height="134.042"><path fill="#134A6D" d="M93.927 147.033c-7.139-21.519 29.775-67.853 55.1-58.844-4.501 20.779-33.426 51.647-52.421 62.853"/><path fill="#005A87" d="M373.385 61.3c-2.658-5.241-29.502-24.041-40.835-30.334-18.875-10.481-38.835-14.169-63.79-10.601-19.038 2.722-33.37 13.63-49.549 28.269-12.297 11.128-24.269 20.192-43.988 20.697-26.273.672-47.736 3.634-73.928 10.796-15.423 4.218-80.492 30.597-91.268 55.333 16.204 3.548 371.326 3.721 373 8.582"/><path fill="#2B82BD" d="M231.961 137.338c1.307-19.157-17.094-36.198-25.964-50.296-3.261 17.08 1.949 40.956 11.917 54"/><path fill="#F8C11E" d="M222.027 138.95c-4.586-15.132-22.927-22.355-37-26.908 6.626 15.083 17.268 35.302 35.98 37"/><path fill="#8BC767" d="M337.865 77.283l-9.121 5.59 3.642-8.964c-11.197-6.281-24.108-9.867-37.859-9.867-18.277 0-36.114 7.108-49.364 17.69l6.233 13.815-12.076-8.39c-13.785 13.991-22.293 33.193-22.293 54.385 0 42.801 34.698 77.5 77.5 77.5s77.5-34.699 77.5-77.5c0-26.748-13.55-50.331-34.162-64.259z"/><path fill="none" stroke="#FEFEFE" stroke-width="1.987" stroke-miterlimit="10" d="M277.027 83.042c4.999 10.56 11.428 19.201 20 24m-46 8c6.667 10.116 12.666 20.907 22 29"/><path fill="#B27D2F" d="M208.788 133.924c-4.763-5.13-11.098-10.713-15.761-15.882 2.971 1.721 16.462 12.447 20 16"/><path fill="#134A6D" d="M199.027 142.132c-3.813-10.7-29.429-20.936-40-21.09 4.601 10.719 26.291 23.932 36.941 21.764"/><path fill="none" stroke="#134A6D" stroke-width="1.49" stroke-miterlimit="10" d="M134.027 107.042c-5.371 11.709-8.544 23.088-11 35"/><path fill="#134A6D" d="M127.981 123.986c.333-2.232-1.194-4.557-2.951-5.944-.033 2.414.155 6.907 2.906 8m3.947-13.899c.723-.228 2.081-.839 3.144-1.101-.632 2.22-3.197 3.881-5 5"/><path fill="#F16F5A" d="M135.112 102.949c-.317-.781.277-1.605 1.325-1.841 1.046-.235 1.926.173 2.465.988.474.712-.48 1.65-1.527 1.886-1.048.237-1.947-.252-2.263-1.033zm-3.022 4.022a1.513 1.513 0 0 1 .989-1.876c.782-.239 1.653.365 1.888 1.161.236.796-.252 1.482-1.034 1.721a1.474 1.474 0 0 1-1.843-1.006zm-2.747-10.889a.489.489 0 0 1 .644.262c.106.252-.005.486-.26.65-.221.144-.557-.058-.664-.311-.106-.251.03-.494.28-.601zm-2.01-1.961c.256-.213.551.019.66.519.109.499-.059 1.115-.314 1.33-.256.211-.502-.062-.612-.559-.108-.5.01-1.077.266-1.29z"/><path fill="#2B82BD" d="M122.638 141.042c2.84-11.517-10.561-24.248-17.611-32 2.789 10.194-.724 31.579 16.572 31.489"/><path fill="#134A6D" d="M129.027 139.046c-6.562-4.153-21.902-18.685-29.768-23.79-4.212-2.733-13.135-7.17-19.232-6.031 4.023.694 6.347 5.723 8.115 9.475 7.203 15.279 22.148 29.776 40.885 20.346z"/></svg>