<svg xmlns="http://www.w3.org/2000/svg" width="460.5" height="362.5"><path d="M201.045 27.214v15.017h-2.546V30.269h-6.871v11.963h-2.799V27.214h12.216zm14.251 15.018l-1.273-3.054h-6.363l-1.272 3.054h-2.799l5.853-15.017h2.799l5.854 15.017h-2.799zm-2.545-6.109l-2.036-5.09-1.782 5.09h3.818zm13.998-8.654c.509.255 1.018.509 1.527 1.018.509.255.764.764 1.018 1.528.255.509.255 1.018.255 1.782 0 .763 0 1.272-.255 2.036-.254.509-.509 1.018-1.018 1.528l-1.527.763c-.509.255-1.273.509-2.037.509h-1.527v5.6h-2.799V27.214h4.326c.764 0 1.273 0 2.037.255zm-3.563 6.109h2.036c.509 0 .764-.255 1.273-.51.255-.254.509-.763.509-1.272 0-.51-.254-.764-.509-1.273-.254-.255-.764-.509-1.273-.509h-2.036v3.564zm11.961-6.364v5.6l5.09-5.6h3.563l-6.363 7.127 7.126 7.891h-3.817l-5.599-6.109v6.109h-2.799V27.214h2.799zm-9.671 27.234v15.016h-2.799V57.502h-6.617v11.963h-2.799V54.448h12.215zm10.434.254c.509.255 1.019.509 1.528 1.018.254.51.763 1.019 1.018 1.528.254.509.254 1.273.254 1.782 0 .763 0 1.527-.254 2.036-.255.509-.509 1.019-1.018 1.528-.509.254-1.019.763-1.528 1.018-.763 0-1.272.255-2.036.255h-1.527v5.599h-2.799V54.448h4.326c.765 0 1.274 0 2.036.254zm-3.562 6.109h2.036c.509 0 .764 0 1.018-.509.509-.255.509-.764.509-1.273 0-.255 0-.764-.254-1.018-.509-.51-.764-.51-1.273-.51h-2.036v3.31zm19.087 8.654V59.283l-7.126 10.181h-2.799V54.448h2.799v10.18l7.126-10.18h2.799v15.016h-2.799zm9.417-15.017v5.854l5.09-5.854h3.562l-6.362 7.126 7.126 7.891h-3.817l-5.599-6.109v6.109h-2.799V54.448h2.799zm23.663 15.017h-2.794V57.502h-4.069v1.019c-.255 1.782-.255 3.563-.51 4.835-.255 1.273-.51 2.546-.765 3.309-.51 1.018-1.02 1.782-1.53 2.291-.51.509-1.275.764-2.04.764-.245 0-.5-.255-.755-.255h-.255l-.51-2.546c.255 0 .765 0 1.02-.254.5 0 .755-.255 1.01-.509.255-.509.51-.764.765-1.273 0-.509.255-1.273.51-2.037 0-1.018.255-1.782.255-3.054v-5.344h9.668v15.017zm19.602-14.763c.765.509 1.785 1.018 2.284 1.782.765.509 1.275 1.273 1.785 2.291s.51 2.037.51 3.308c0 1.019 0 2.037-.51 3.054-.51 1.019-1.02 1.782-1.785 2.546-.5.509-1.52 1.018-2.284 1.527-1.02.509-2.04.509-3.06.509-1.01 0-1.775 0-2.794-.254l-2.295-1.528c-.765-.509-1.265-1.272-1.775-2.036-.255-.764-.765-1.782-.765-2.546h-2.295v6.109h-2.794V54.447h2.794v5.854h2.295c.255-1.018.51-1.781 1.02-2.545.5-.764 1.01-1.273 1.775-1.782.51-.764 1.275-1.018 2.295-1.273.765-.509 1.53-.509 2.539-.509 1.02.001 2.04.255 3.06.51zm-5.089 2.8c-.51.255-1.02.509-1.53 1.019-.51.254-.765.763-1.02 1.527-.255.509-.51 1.273-.51 2.036 0 .51.255 1.273.51 1.782.255.764.51 1.273 1.02 1.528.51.509 1.02.764 1.53 1.018.765.255 1.275.509 2.029.509.765 0 1.275-.254 2.04-.509.51-.254 1.02-.509 1.53-1.018.255-.255.765-.764 1.02-1.528.255-.509.255-1.272.255-1.782 0-.763 0-1.527-.255-2.036-.255-.764-.765-1.273-1.02-1.527-.51-.51-1.02-.764-1.53-1.019-.765-.254-1.275-.254-2.04-.254-.754 0-1.264 0-2.029.254zm14.757 1.019c0 .763.255 1.272.51 1.782.51.254 1.02.509 1.785.509.255 0 .765 0 1.02-.255h.755v-6.108h2.805v15.016h-2.805v-6.109c-.255.255-.755.255-1.01.255h-1.275c-.51 0-1.275 0-1.785-.255-.51 0-1.02-.254-1.53-.763-.255-.255-.755-.764-.755-1.273-.255-.509-.51-1.018-.51-1.782v-5.09h2.794v4.073zm19.092-4.073v3.053h-5.599v2.801h5.089v3.053h-5.089v3.309h5.599v2.799h-8.404V54.448h8.404zm6.363 0v5.854h6.864v-5.854h2.805v15.016h-2.805v-6.109h-6.864v6.109h-2.805V54.448h2.805zm23.661 15.017V59.283l-7.118 10.181h-2.805V54.448h2.55v10.18l7.373-10.18h2.55v15.016h-2.55zm16.542-.003v-10.18l-7.118 10.18h-2.805V54.446h2.805v10.181l7.118-10.181h2.805v15.016h-2.805zm-.255-17.561c-.255.255-.51.509-.755 1.019-.51.254-.765.254-1.275.509-.51.254-.765.254-1.275.254s-1.02 0-1.53-.254c-.51-.255-.765-.255-1.02-.509-.5-.51-.755-.764-.755-1.019-.255-.509-.51-1.018-.51-1.527l2.029-.255c.255.509.255.764.51 1.019.255.254.765.509 1.275.509s.765-.255 1.02-.509c.255-.255.51-.51.51-1.019l2.029.255c.002.509-.253 1.018-.253 1.527zM198.754 69.719V59.538l-7.126 10.181h-2.799V54.702h2.799v10.181l7.126-10.181h2.799v15.017h-2.799zm57.771-38.432c0 .764.255 1.528.764 1.782.254.255.764.51 1.527.51.509 0 .764 0 1.018-.255h.764v-6.109h2.799v15.017h-2.799v-5.854h-2.036c-.764 0-1.273 0-1.782-.255-.764 0-1.273-.254-1.527-.509-.51-.509-.764-1.018-1.019-1.527-.254-.509-.254-1.019-.254-1.782v-5.091h2.544v4.073zm12.47-4.073l3.058 6.873 2.794-6.873h3.06l-6.109 15.017h-3.058l2.037-4.836-4.581-10.181h2.799zm23.414 12.218v6.108h-2.55v-3.308h-9.668v3.308h-2.539v-6.108h1.265c.765-1.782 1.53-3.309 2.04-5.091s.765-3.817.765-5.854v-1.273h8.648v12.218h2.039zm-4.579-9.163h-3.569c0 1.528-.255 3.309-.755 4.836-.255 1.527-.765 2.799-1.53 4.327h5.854v-9.163zm16.032-3.055v3.054h-5.599v2.799h5.089v3.054h-5.089v3.309h5.599v2.799h-8.404V27.214h8.404zm15.012 13.745c-.51.254-.765.764-1.275.764-.5.254-1.01.509-1.775.763h-1.785c-1.02 0-2.04 0-3.049-.509-.765-.254-1.785-.764-2.295-1.527-.765-.764-1.275-1.528-1.785-2.546-.51-1.018-.51-2.036-.51-3.054 0-1.273 0-2.291.51-3.308.51-1.018 1.02-1.782 1.785-2.546.51-.509 1.53-1.018 2.295-1.527 1.01-.255 2.029-.509 3.049-.509.51 0 1.275 0 1.785.254.51 0 1.275.255 1.52.509.51.255 1.02.51 1.275.764l1.02 1.018-1.02 2.546c0-.255-.255-.509-.765-.764-.255-.254-.51-.509-1.01-.763-.255-.255-.765-.255-1.275-.51h-1.275c-.765 0-1.53 0-2.295.255-.5.255-1.01.509-1.52 1.018-.51.255-.765.764-1.02 1.528-.255.509-.255 1.273-.255 2.036 0 .764 0 1.273.255 2.037.255.509.51 1.018 1.02 1.527.51.255 1.02.764 1.52.764.765.254 1.53.509 2.295.509.51 0 1.02 0 1.53-.255.255 0 .765-.254 1.275-.509.245-.254.755-.509 1.01-.763l.765-.764.765 2.546c-.255.252-.51.761-.765 1.016zM97.21 187.053L93.138 91.1H41.985L19.08 187.053H8.137v36.905h20.105v-15.78h58.534v15.78h20.105v-36.905H97.21zm-58.279 0l18.324-72.793h17.56l1.782 72.793H38.931zM136.912 91.1h-19.087v117.078h19.087v-34.87c22.904 0 39.192-17.052 39.192-41.231 0-23.925-16.288-40.977-39.192-40.977zm0 58.539V114.26c10.943 0 19.086 5.345 19.086 17.817 0 12.217-8.143 17.562-19.086 17.562zm69.732 15.78V91.1h-18.833v117.078h20.105l26.467-69.229-2.545 69.229h19.341l2.546-116.825h-20.36l-26.721 74.066zm27.231 113.259c4.326-5.091 7.126-11.454 7.126-19.343 0-17.817-13.487-32.833-34.865-32.833h-18.324v116.824h18.324c23.414 0 41.992-10.69 41.992-38.178-.001-12.218-5.855-21.125-14.253-26.47zm-26.976-30.797c10.943 0 15.015 5.854 15.015 11.963 0 6.108-4.327 11.962-15.015 11.962v-23.925zm0 73.81v-32.069c12.979 0 21.632 4.581 21.632 16.035 0 11.453-8.907 16.034-21.632 16.034zm90.599-95.189l-15.267 43.522-17.308-43.522h-22.396l29.781 71.011-16.292 46.068h21.636l41.477-117.078h-21.631zm85.004 95.699l-9.168-95.699h-43.517s-10.178 72.793-19.591 95.699h-11.708v37.159h20.101v-16.034h54.97v16.034h19.857v-37.159h-10.944zm-50.645 0c6.874-21.635 11.708-49.377 14.247-72.793h9.933l5.844 72.793h-30.024zM315.315 164.91L292.664 91.1h-19.091l-4.068 117.078h18.836l1.52-64.902 14.767 45.05h19.336l23.416-51.413v71.265h18.837V91.1h-19.092l-31.81 73.81zM154.981 347.652l-1.018-1.018c-12.216-12.217-28.504-19.09-45.554-19.09-17.306 0-33.594 6.873-45.555 19.09l-1.273 1.018-10.18-10.435 1.018-1.018c25.195-25.197 25.195-65.921 0-91.118l-1.018-1.018 10.18-10.435 1.273 1.018c11.961 12.217 28.249 18.835 45.555 18.835 17.051 0 33.339-6.618 45.554-18.835l1.018-1.018 10.18 10.435-1.018 1.018c-24.94 25.197-24.94 65.921 0 91.118l1.018 1.018-10.18 10.435zm-46.573-34.614c9.416 0 18.579 1.528 26.976 4.836a80.104 80.104 0 0 1 0-54.467c-8.397 3.054-17.56 4.836-26.976 4.836s-18.579-1.782-27.231-4.836c3.053 8.653 4.835 17.816 4.835 27.233 0 9.417-1.782 18.581-4.835 27.234 8.653-3.309 17.815-4.836 27.231-4.836zm335.428-212.267l-.255.509.255-.509zm-41.233 0l.255.509-.255-.509zm40.978.509c-11.198 11.199-11.198 29.27 0 40.469l.255.509-.255-.509c-5.599-5.599-12.983-8.399-20.366-8.399-7.373 0-14.757 2.801-20.356 8.399 11.198-11.199 11.198-29.27 0-40.469 5.599 5.6 12.983 8.399 20.356 8.399 7.383 0 14.767-2.799 20.366-8.399zm-40.723 40.468l-.255.509.255-.509zm30.8-51.158l-.51.255 10.433 10.435-10.433-10.435c-2.55 2.799-6.109 4.072-9.933 4.072-3.814 0-7.373-1.273-9.923-4.072l-.51-.255-20.611 20.616.51.509c5.344 5.345 5.344 14.253 0 19.852l-.51.255 20.611 20.87.51-.509c2.55-2.545 6.109-4.072 9.923-4.072 3.824 0 7.384 1.528 9.933 4.072l.51.509 20.611-20.87-.51-.255c-5.344-5.599-5.344-14.507 0-19.852l.51-.509-20.611-20.616zM143.274 36.377L132.84 25.942l22.141-21.889 10.18 10.181-21.887 22.143zm-24.941 0L96.192 14.234l10.434-10.181 21.887 21.889-10.18 10.435zm-11.706 36.651L96.192 62.593l22.141-21.889 10.18 10.181-21.886 22.143zm48.354 0L132.84 50.885l10.434-10.181 21.887 21.889-10.18 10.435z" fill="#FEFEFE"/></svg>