<?xml version="1.0" encoding="utf-8"?>
<!-- Generator: Adobe Illustrator 17.0.0, SVG Export Plug-In . SVG Version: 6.00 Build 0)  -->
<!DOCTYPE svg PUBLIC "-//W3C//DTD SVG 1.1//EN" "http://www.w3.org/Graphics/SVG/1.1/DTD/svg11.dtd">
<svg version="1.1" id="Слой_1" xmlns="http://www.w3.org/2000/svg" xmlns:xlink="http://www.w3.org/1999/xlink" x="0px" y="0px"
	 width="245px" height="56px" viewBox="0 0 245 56" enable-background="new 0 0 245 56" xml:space="preserve">
<path fill="#015987" d="M27.3,1.2h190.4c14.801,0,26.8,11.999,26.8,26.8s-11.999,26.8-26.8,26.8H27.3C12.499,54.8,0.5,42.801,0.5,28
	S12.499,1.2,27.3,1.2z"/>
<path fill="#FEFEFE" d="M47.46,19.094v15.078h2.751v-6.237l5.67,6.237h3.801L52.5,26.255l6.363-7.161h-3.528l-5.124,5.754v-5.754
	H47.46z M60.144,19.094l4.599,10.227l-1.932,4.851h3.003l6.027-15.078h-3.003l-2.709,6.783l-3.024-6.783H60.144z M74.039,19.094
	v15.078h2.751V22.076h6.72v12.096h2.751V19.094H74.039z M102.472,34.172V19.094h-2.751l-7.14,10.227V19.094H89.83v15.078h2.772
	l7.119-10.164v10.164H102.472z M104.539,19.094v2.94h4.431v12.138h2.751V22.034h4.431v-2.94H104.539z M122.559,34.151
	c0.693,0,1.344-0.105,1.932-0.336c0.588-0.231,1.113-0.546,1.554-0.966c0.441-0.42,0.798-0.903,1.05-1.47s0.378-1.218,0.378-1.932
	c0-0.693-0.126-1.323-0.357-1.89c-0.231-0.567-0.567-1.05-1.008-1.47s-0.966-0.735-1.575-0.966c-0.609-0.231-1.26-0.336-1.974-0.336
	h-1.596v-5.691h-2.751v15.078h4.326L122.559,34.151z M120.984,27.725h1.995c0.483,0,0.903,0.147,1.239,0.462s0.504,0.735,0.504,1.26
	c0,0.483-0.168,0.903-0.483,1.239c-0.315,0.336-0.735,0.504-1.26,0.504h-1.995V27.725z M135.419,19.094v15.078h4.326
	c0.693,0,1.344-0.105,1.932-0.336c0.588-0.231,1.113-0.546,1.554-0.966c0.441-0.42,0.777-0.903,1.029-1.47s0.378-1.218,0.378-1.932
	c0-0.693-0.126-1.323-0.357-1.89c-0.231-0.567-0.567-1.05-1.008-1.47c-0.441-0.42-0.966-0.735-1.575-0.966
	c-0.609-0.231-1.26-0.336-1.974-0.336h-1.596v-2.709h5.229v-2.982L135.419,19.094z M140.123,31.232h-1.995v-3.465h1.995
	c0.483,0,0.903,0.168,1.239,0.483s0.504,0.735,0.504,1.26c0,0.483-0.168,0.903-0.483,1.239c-0.315,0.336-0.735,0.504-1.26,0.504
	V31.232z M159.935,34.172V19.094h-2.751l-7.14,10.227V19.094h-2.751v15.078h2.772l7.119-10.164v10.164H159.935z M174.938,19.094
	h-9.471l-0.021,1.239c-0.021,1.575-0.063,2.94-0.126,4.095c-0.063,1.155-0.168,2.142-0.315,2.961
	c-0.147,0.819-0.315,1.491-0.504,2.016c-0.189,0.525-0.42,0.945-0.693,1.26c-0.273,0.315-0.588,0.546-0.945,0.672
	c-0.357,0.126-0.735,0.21-1.155,0.231l0.504,2.436c0.105,0.063,0.252,0.126,0.441,0.168s0.399,0.063,0.63,0.063
	c0.777,0,1.449-0.231,2.016-0.714s1.05-1.176,1.428-2.1c0.378-0.924,0.672-2.058,0.882-3.423c0.21-1.365,0.336-2.919,0.399-4.683
	l0.042-1.218h4.074v12.096h2.751L174.938,19.094z M178.505,19.094v15.078h8.316V31.19h-5.565v-3.276h4.935v-2.982h-4.935v-2.856
	h5.565v-2.982H178.505z M188.355,19.094v2.94h4.431v12.138h2.751V22.034h4.431v-2.94H188.355z"/>
</svg>
