<?xml version="1.0" encoding="utf-8"?>
<!-- Generator: Adobe Illustrator 17.0.0, SVG Export Plug-In . SVG Version: 6.00 Build 0)  -->
<!DOCTYPE svg PUBLIC "-//W3C//DTD SVG 1.1//EN" "http://www.w3.org/Graphics/SVG/1.1/DTD/svg11.dtd">
<svg version="1.1" id="Слой_1" xmlns="http://www.w3.org/2000/svg" xmlns:xlink="http://www.w3.org/1999/xlink" x="0px" y="0px"
	 width="2063.429px" height="1081.628px" viewBox="0 0 2063.429 1081.628" enable-background="new 0 0 2063.429 1081.628"
	 xml:space="preserve">
<path fill="#91C04D" d="M857.322,1079.29c47.832-89.577,25.009-219.936-28.407-298.588c-35.692-52.921-89.592-84.48-134.753-127.933
	c-55.6-53.649-82.551-129.145-74.296-205.371c6.798-66.029,7.77-137.157-27.922-195.66c-34.478-56.319-96.877-81.566-135.967-133.03
	c-3.156-4.126-6.07-8.497-8.983-12.866c-15.54-24.761-25.01-77.196-32.78-105.841c0,0-117.999-0.001-122.474,0H0V1079.29H857.322
	L857.322,1079.29z"/>
<path fill="#91C04D" d="M976.628,0c13.705,62.653,43.02,122.236,81.209,166.646c53.202,61.916,130.045,96.252,195.527,146.153
	c80.783,61.473,123.575,152.443,118.165,247.424c-4.64,81.972-0.781,169.97,52.932,239.081
	c51.532,66.855,237.634,103.55,243.635,279.984c4.38,4.813,395.333,0.71,395.333,0.71V0"/>
</svg>
