<?xml version="1.0" encoding="utf-8"?>
<!-- Generator: Adobe Illustrator 17.0.0, SVG Export Plug-In . SVG Version: 6.00 Build 0)  -->
<!DOCTYPE svg PUBLIC "-//W3C//DTD SVG 1.1//EN" "http://www.w3.org/Graphics/SVG/1.1/DTD/svg11.dtd">
<svg version="1.1" id="Слой_1" xmlns="http://www.w3.org/2000/svg" xmlns:xlink="http://www.w3.org/1999/xlink" x="0px" y="0px"
	 width="760px" height="267px" viewBox="0 0 760 267" enable-background="new 0 0 760 267" xml:space="preserve">
<path fill="#5AAA48" d="M806.716-5.634c-20.185,36.763-86.247,29.409-121.109,102.933c-25.709,54.217-60.555,91.904-135.69,92.03
	c-34.596,0.057-88.489-19.141-106.883-18.579c-29.879,0.914-50.507,22.18-80.534,26.191c-39.66,5.299-84.608-22.055-109.855-20.677
	c-44.129,2.407-83.748,33.849-120.433,55.259c-26.813,15.646-60.625,26.028-91.993,18.878
	c-42.355-9.657-59.273-60.734-57.452-100.05c0.309-6.677-1.293-149.371-0.132-155.985"/>
</svg>
