<?xml version="1.0" encoding="utf-8"?>
<!-- Generator: Adobe Illustrator 17.0.0, SVG Export Plug-In . SVG Version: 6.00 Build 0)  -->
<!DOCTYPE svg PUBLIC "-//W3C//DTD SVG 1.1//EN" "http://www.w3.org/Graphics/SVG/1.1/DTD/svg11.dtd">
<svg version="1.1" id="Слой_1" xmlns="http://www.w3.org/2000/svg" xmlns:xlink="http://www.w3.org/1999/xlink" x="0px" y="0px"
	 width="2134.5px" height="1080px" viewBox="0 0 2134.5 1080" enable-background="new 0 0 2134.5 1080" xml:space="preserve">
<path fill="#225983" d="M1158.58-1.318c-66.83,139.818,23.49,207.844,39.698,230.778c19.18,27.139,54.253,38.78,82.763,46.834
	c53.055,14.985,117.814,8.238,160.655,55.19c16.822,18.434,22.547,44.836,40.91,62.379c17.765,16.969,45.198,29.434,66.255,40.245
	c57.643,29.6,120.888,485.63,585.638,495.46V1.318"/>
<g>
	<path fill="#FDDE93" d="M956.387,137.183c-14.341,71.281-2.487,142.189-50.307,175.907
		c-63.936,45.082-124.542,51.461-198.502,64.391c-36.013,6.299-229.432,46.702-154.979,127.515
		c22.629,24.565,25.023,7.562,52.734,22.485c37.314,20.097,33.345,13.12,68.177,38.403c43.674,31.702,9.126-14.561-19.378-51.605
		c-25.596-33.264,16.214-56.96,43.864-68.431c47.252-19.603,107.164-8.012,156.962-11.806
		c64.067-4.882,129.092-27.937,176.063-74.748c53.237-53.057-111.724-159.086-107.681-231.768"/>
	<path fill="#F8BE2E" d="M948.636,129.324c-13.871,71.384-3.137,142.247-48.239,176.245c-60.3,45.457-117.256,52.179-186.79,65.53
		c-33.859,6.504-248.523,59.247-179.055,139.666c21.115,24.445,64.632,29.148,90.574,43.92
		c34.931,19.893,70.499,40.044,103.069,65.139c40.839,31.465-38.995-74.688-65.556-111.583
		c-23.851-33.131,15.55-57.07,41.582-68.699c44.487-19.876,100.69-8.619,147.48-12.695c60.198-5.244,121.397-28.672,165.775-75.762
		c50.298-53.373-114.639-159.488-110.432-232.216"/>
	<path fill="#FDDE93" d="M863.631,330.791c-0.001-0.002-0.001-0.004,1.923-0.266c1.924-0.263,1.924-0.264,1.924-0.264l0.001,0.004
		l0.004,0.03c0.004,0.028,0.011,0.071,0.022,0.133c0.02,0.121,0.053,0.307,0.101,0.554c0.096,0.493,0.252,1.225,0.484,2.159
		c0.467,1.869,1.245,4.542,2.483,7.715c2.479,6.35,6.791,14.666,14.116,22.553c14.559,15.674,41.343,29.989,90.428,23.097l0.57,3.76
		c-50.183,7.045-78.323-7.571-93.873-24.311c-7.728-8.321-12.267-17.082-14.873-23.759c-1.304-3.34-2.128-6.168-2.628-8.17
		c-0.25-1.001-0.419-1.798-0.526-2.351c-0.054-0.275-0.093-0.491-0.118-0.64c-0.012-0.074-0.022-0.133-0.029-0.174l-0.008-0.049
		l-0.002-0.015L863.631,330.791L863.631,330.791z M867.479,330.261C867.479,330.26,867.479,330.261,867.479,330.261L867.479,330.261
		z"/>
	<path fill="#FDDE93" d="M929.665,260.44c-0.001-0.001-0.002-0.003,1.264-0.931c1.266-0.927,1.266-0.929,1.265-0.929v-0.001
		c0,0,0,0,0.001,0.001l0.009,0.017c0.009,0.017,0.024,0.047,0.047,0.089c0.045,0.082,0.117,0.209,0.216,0.379
		c0.2,0.341,0.512,0.849,0.946,1.495c0.871,1.292,2.234,3.136,4.18,5.285c3.89,4.296,10.112,9.818,19.382,14.602
		c18.526,9.559,49.35,16.224,98.265,4.005l0.527,3.388c-49.394,12.338-80.858,5.685-100.042-4.214
		c-9.585-4.945-16.074-10.686-20.181-15.221c-2.053-2.267-3.509-4.231-4.46-5.643c-0.475-0.706-0.823-1.273-1.057-1.671
		c-0.117-0.2-0.205-0.356-0.265-0.466c-0.031-0.055-0.054-0.099-0.07-0.131l-0.02-0.038l-0.006-0.012L929.665,260.44z
		 M932.193,258.579L932.193,258.579z"/>
	<path fill="#5AA948" d="M1205.341-38.101c-25.318,46.112-108.179,36.888-151.907,129.11
		c-32.248,68.004,98.442,115.276,4.198,115.433c-43.393,0.072-110.992-24.007-134.063-23.302
		c-37.477,1.145-63.353,27.82-101.016,32.85c-49.746,6.647-106.124-27.662-137.793-25.935
		c-55.351,3.02-105.046,42.456-151.06,69.313c-33.632,19.624-76.043,32.646-115.387,23.679
		c-46.918-10.698-68.952-61.915-71.887-107.707c-0.388-6.06,5.433-205.562,5.7-211.325"/>
	<path fill="#5AA948" d="M1055.203,509.463c-9.617,29.63-77.214,54.354-107.027,60.108c-33.959,6.555-65.953-4.019-98.385-11.749
		c-63.513-15.14-115.91,41.503-177.197,33.624c-40.005-5.144-199.184-25.624-221.538-59.981
		c-45.275-69.591,107.975-85.535,148.419-84.25"/>
	<path fill="#B08131" d="M770.177,64.164c48.611,43.558-0.557,163.788-36.239,206.013c-28.517,33.751-65.161,49.992-94.9,82.101
		c-29.006,31.325-53.853,77.483-73.248,120.204c-33.016,72.723-28.336,149.052,10.933,210.881
		c19.645,30.926,44.933,55.339,60.268,92.661c17.199,41.868,37.302,184.516,43.486,229.64l200.596-1.204
		c10.19-143.122-204.846-363.478-153.989-499.448c12.256-32.77,35.872-44.112,58.389-55.599
		c33.697-17.195,53.509-65.704,82.856-105.473c46.805-63.431,59.301-204.24,37.976-252.443
		C870.144,9.762,837.421,105.163,770.177,64.164"/>
	<path fill="#B08131" d="M425.699,236.257c23.018,57.641,71.497,78.761,125.355,96.354c55.69,18.189,86.057,100.385,98.945,157.521
		c1.384-52.239,18.013-149.221-32.679-184.236c-40.764-28.161-185.046-13.483-144.437-115.749"/>
	<path fill="#B08131" d="M841.164,283.779c25.304-39.451,116.181-35.986,145.523-40.843c103.042-17.053-34.834-161.99-10.36-162.301
		c-47.187,126.805,87.009,160.701,64.207,174.756c-64.505,39.766-153.185,44.788-205.726,97.581
		c-2.704-0.167-4.55-1.432-5.531-3.797"/>
	<path fill="#9B692D" d="M717.441,1005.665c5.568-65.349-67.962-272.09-104.157-324.959
		c-36.922-53.933-40.129-124.089-33.225-181.145c-29.377-8.124-38.895,35.65-38.18,96.363c0.441,37.535,19.386,68.636,39.247,99.258
		c42.095,64.902,99.17,228.388,99.35,310.483"/>
	<path fill="#9A6B2E" d="M721.335,967.282c9.888-22.844-28.24-173.942-37.657-198.029c-11.336-29.001-27.813-54.02-47.821-82.596
		c63.162,68.925,98.409,249.069,107.917,308.289"/>
	<path fill="#9A6B2E" d="M749.471,683.764c-26.858-39.811-59.261-126.816-38.231-184.635
		C666.244,498.971,710.723,656.25,749.471,683.764z"/>
	<path fill="#9A6B2E" d="M676.724,318.005c22.259-21.245,48.387-40.115,65.159-68.693c11.76-20.04,19.061-42.316,26.326-64.485
		c3.233-9.865,13.862-83.06,13.862-83.06c13.043-25.36,15.485-24.101,18.937,72.726c2.871,80.517-60.104,158.083-124.284,204.029"/>
	<path fill="#9A6B2E" d="M818.708,354.703c14.785,0.089,39.352-31.269,50.024-40.277c11.095-9.364,112.53-34.652,137.368-41.666
		c-24.936,11.144-67.279,23.999-93.4,33.558c-7.609,2.785-19.479,8.326-27.438,12.169c0,0-33.179,49.404-46.019,69.938"/>
	<path fill="#9A6B2E" d="M802.787,99.462c8.057,79.925,6.426,123.539-9.4,158.122c6.714-14.219,23.018-28.243,21.868-178.679"/>
	<path fill="#9A6B2E" d="M895.133,291.15c46.675-31.879,111.538-18.702,154.996-57.332
		C1016.979,274.102,943.624,270.936,895.133,291.15z"/>
	<path fill="#F8DF8F" d="M383.723,571.465c12.027,73.374,87.964,87.466,124.97,97.206c84.875,22.334,161.258,24.376,226.249,88.518
		c33.455,13.644,73.288,145.642,78.515,225.135c5.231,31.095,132.895,38.255,160.814,24.841
		C962.897,870.5,942.23,828.5,893.311,740.784c-34.317-48.083-76.249-97.951-129.444-126.042
		c-60.121-31.746-122.856-37.977-188.589-51.598c-49.684-10.295-116.597-27.557-194.984-112.142"/>
	<path fill="#E89692" d="M863.309,639.653c-4.703,1.429-7.726,6.922-13.003,7.246c-0.016-1.168,1.501-2.998,2.007-4.091
		c0.856-1.842,1.492-3.467,2.008-5.41c0.308-1.158,0.517-3.443,1.899-3.894c1.255-0.407,3.612-0.802,4.551-0.009
		c0.634,0.529,2.219,3.946,2.207,4.765"/>
	<path fill="#F8C8BE" d="M826.322,648.94c4.873-0.944,21.132-5.797,24.48-10.71c0.752-1.101,3.504-5.922,7.629-6.968
		c1.656-0.391,9.174,5.851,4.656,9.109c-1.906,1.375-5.846-6.926-6.106-6.469c-0.423,0.741-0.948,1.447-1.139,1.862
		c-0.927,2.014-0.63,3.86-0.683,5.978c-0.096,3.842-3.202,5.125-5.997,6.955c-2.945,1.93-14.431,9.823-17.77,10.573
		c-1.398,0.313-2.813,0.7-4.254,0.736c-1.354,0.039-9.486-0.095-11.447-1.711"/>
	<path fill="#F5C022" d="M434.973,641.859c28.364,15.02,57.927,23.85,73.868,28.057c18.646,4.919,37.453,8.821,56.104,12.69h0.001
		l0,0c2.924,0.607,5.845,1.213,8.76,1.821c33.751-21.461,44.361-53.27,46.293-80.663c0.594-8.42,0.365-16.411-0.267-23.538
		c-3.504-0.659-7.017-1.313-10.539-1.967c-12.561-2.337-25.241-4.696-38.042-7.356c-22.262-4.625-48.22-10.749-77.284-24.588
		c-0.079,5.201-0.449,10.683-1.234,16.319c-2.174,15.597-7.542,32.409-18.787,47.624
		C464.94,622.305,452.399,633.285,434.973,641.859z M388.684,465.683c36.603,39.601,70.533,63.474,101.12,78.656
		c-0.008,5.61-0.354,11.58-1.212,17.73c-2.104,15.093-7.277,31.219-18.027,45.764c-8.928,12.079-21.756,23.142-40.022,31.623
		c-31.59-17.556-34.683-21.551-40.487-57.052 M693.785,724.478c-34.861-20.773-74.101-30.348-114.464-38.872
		c32.434-22.273,42.819-54.217,44.747-81.555c0.579-8.213,0.398-16.02-0.175-23.04c42.567,8.066,83.771,17.145,123.741,38.304
		c7.583,4.015,14.919,8.504,22.025,13.388c-3.09,10.992-7.906,25.08-15.05,38.957C742.179,695.802,722.947,718.899,693.785,724.478z
		 M773.196,635.18c-3.15,10.957-7.95,24.731-14.96,38.347c-12.072,23.449-30.923,46.8-59.449,54.029
		c11.418,7.253,22.337,15.791,32.638,25.986c13.576,13.432,27.153,34.239,38.742,59.802c46.926,1.63,75.491-14.226,92.555-31.093
		c9.129-9.024,15.02-18.391,18.668-25.653c-4.194-6.767-8.438-13.145-12.621-19.02C842.363,700.479,811.137,662.249,773.196,635.18z
		 M810.64,973.241c-5.2-21.557-30.776-137.75-38.634-155.761c46.835,1.158,75.93-14.878,93.583-32.327
		c8.595-8.495,14.434-17.283,18.287-24.488c72.3,133.94,64.999,189.471,61.859,232.774
		C919.608,1006.025,817.577,1001.996,810.64,973.241z"/>
	<path fill="#035B87" d="M821.441,612.204c6.403-6.082,0.668-12.98-3.329-18.029c-5.333-6.725-13.39-12.826-22.662-8.995
		c-8.605,3.55-14.738,9.447-15.967,21.025c-0.478,4.521,3.143,12.65,5.913,14.288c3.901,2.302,20.725,6.559,23.537,2.809"/>
	<path fill="#F06F5B" d="M789.786,621.161c-7.16,1.229-17.067,7.572-16.436,13.394c0.587,5.414,5.632,10.475,10.206,12.571
		c10.387-9.226,22.782,24.968,36.608,25.84c1.672,0.105-2.65-14.616-0.736-15.144c3.28-0.906,8.738-5.394,7.849-8.41
		c-0.897-3.057-3.782-6.817-5.293-9.666c-1.78-3.357-4.032-7.2-7.352-9.206c-2.996-1.805-6.529-2.697-9.443-4.696
		c-3.183-2.182-5.04-5.573-8.347-7.639C793.327,616.002,793.755,621.048,789.786,621.161z"/>
	<path fill="#E89692" d="M806.039,631.478c1.85,6.778-4.764,4.888-6.424,3.927c-6.699-3.866-11.86-10.405-12.173-18.297"/>
	<path fill="#F8C8BE" d="M819.268,604.39c3.916,10.448-5.781,23.168-14.221,27.65c-6.669,3.543-12.992-4.085-15.575-9.556
		c-1.527-3.229-6.042-15.032,0.729-12.995"/>
	<path fill="#F8C8BE" d="M783.52,646.659c4.428,3.963,8.584,7.081,13.559,10.338c3.825,2.497,7.222,2.424,6.973,7.813
		c-0.16,3.459-3.824,9.137-3.143,10.729c1.424,3.332,5.22-4.509,6.089-5.814c0.272,2.222-1.49,11.431,1.458,12.242
		c2.853,0.781,1.238-9.24,2.405-11.079c1.923,1.34,0.625,12.203,3.447,12.028c2.511-0.154,0.58-11.644,1.888-10.679
		c2.395,1.765,1.248,8.601,4.314,8.46c2.089-2.989-0.755-9.87-1.919-12.829c-1.883-4.789-4.307-9.165-8.085-12.682
		c-1.79-1.662-15.043-12.434-17.244-13.275C788.659,640.149,784.777,641.079,783.52,646.659z"/>
	<path fill="#035B87" d="M820.234,602.351c-2.141,6.381-14.112,14.717-19.214,15.864c-9.719,2.188-5.843-4.208-10.82-8.725"/>
</g>
</svg>
