<?xml version="1.0" encoding="utf-8"?>
<!-- Generator: Adobe Illustrator 17.0.0, SVG Export Plug-In . SVG Version: 6.00 Build 0)  -->
<!DOCTYPE svg PUBLIC "-//W3C//DTD SVG 1.1//EN" "http://www.w3.org/Graphics/SVG/1.1/DTD/svg11.dtd">
<svg version="1.1" id="Слой_1" xmlns="http://www.w3.org/2000/svg" xmlns:xlink="http://www.w3.org/1999/xlink" x="0px" y="0px"
	 width="651px" height="848.011px" viewBox="0 0 651 848.011" enable-background="new 0 0 651 848.011" xml:space="preserve">
<path fill="#5AAA48" d="M652.307-2.115C651,22.902,653.833,25.89,626,129.098c-50,185.408-151,70.408-366.113,120.759
	c-44.889-4.623-81.571,31.975-127.535,33.292C71.642,284.892,36.281,242.738-1.816,240"/>
<g>
	<g>
		<path fill="#B18130" d="M194.431,140.03l13.345,26.08c0.765,0.463,1.522,0.897,2.275,1.318
			C206.826,156.055,201.757,146.551,194.431,140.03z"/>
		<path fill="#B18130" d="M386.139,312.42c-12.968,2.132-40.523,2.307-66.502,6.993c11.354-50.476,11.418-105.927,0.283-130.933
			c-29.378-65.97-56.005,9.047-109.868-21.052c14.406,50.795-8.112,139.051-32.13,167.285
			c-23.492,27.622-53.681,40.914-78.18,67.192c-23.895,25.637-44.365,63.414-60.343,98.377
			C12.201,559.8,16.056,622.268,48.405,672.87c16.185,25.31,37.018,45.291,49.65,75.836c14.169,34.265,15.309,72.463,20.405,109.392
			c50.845,1.475,115.458,19.21,165.253-0.984c8.395-117.134-153.335-218.929-111.439-330.208
			c10.097-26.818,29.552-36.102,48.102-45.503c27.76-14.073,44.082-53.773,68.258-86.321c4.37-5.884,8.373-12.587,12.018-19.895
			c40.872-20.061,90.745-28.627,129.848-52.575c18.785-11.502,51.903-39.244,90.775-143.022
			C501.113,179.844,471.027,298.463,386.139,312.42z"/>
	</g>
	<path fill="#9A6B2D" d="M130.788,373.856c18.337-17.388,39.862-32.83,53.679-56.219c9.688-16.401,15.703-34.631,21.689-52.775
		c2.663-8.075,11.419-67.979,11.419-67.979c10.745-20.755,12.757-19.724,15.6,59.521c2.365,65.895-49.514,129.376-102.386,166.978"
		/>
	<path fill="#9A6B2D" d="M247.756,403.891c12.18,0.072,32.418-25.591,41.211-32.963c9.14-7.664,92.704-28.36,113.166-34.1
		c-20.542,9.12-55.425,19.641-76.944,27.465c-6.268,2.279-16.046,6.813-22.603,9.958c0,0-25.676,41.432-40.135,54.641"/>
	<path fill="#9A6B2D" d="M234.64,194.998c6.637,65.412,5.294,101.106-7.743,129.41c5.531-11.637,18.962-23.115,18.015-146.234"/>
	<path fill="#9A6B2D" d="M310.716,351.878c38.452-26.091,91.887-15.306,127.688-46.921
		C411.094,337.925,350.664,335.334,310.716,351.878z"/>
	<path fill="#8BC767" d="M652.307-2.115c-1.671,67.451-33.471,103.76-124.898,117.466c-41.951,6.29-53.983,33.635-83.743,58.129
		c-37.337,30.734-70.45,29.024-117.078,24.829c-43.028-3.869-108.7-35.311-147.998-12.12
		c-40.612,23.968-69.171,59.226-110.403,66.273c-22.12,3.779-53.724-0.302-67.24-11.189c-18.157-14.626-6.624-15.701-7.162-40.258
		C-7.668,134.769-8.491,68.586-6.032,2.419C1.411,1.291,8.672-4.172,12.997-11"/>
	<path fill="#B9DB9C" d="M576.815-2.916c-0.266,7.867-11.634,47.729-16.385,50.886c-0.431-2.551-1.166-4.485-2.293-5.312
		c-8.7-6.373-30.214,6.903-39.706,7.748c-12.204,1.086-20.376-3.162-32.177,2.528c-5.097,2.456-7.262,7.233-12.304,9.377
		c-4.158,1.768-9.201,0.224-13.549,2.227c-10.312,4.75-12.195,10.775-24.231,12.77c-12.047,1.995-35.592,4.305-14.504,12.776
		c7.28,2.922,29.542,2.607,33.52,10.19c2.236,4.263,1.708,9.571-0.142,14.448c-2.227,3.696-4.477,7.314-6.926,10.803
		c-0.162,0.158-0.324,0.313-0.487,0.461l0.234-0.104c-7.943,11.221-18.048,21.062-36.359,27.735
		c-4.073-1.073-9.628,0.546-14.012,0.869c-12.986,0.958-18.096-1.94-27.925-6.986c-11.45-5.874-19.693-0.257-30.956-3.56
		c-4.404-1.291-5.734-4.938-9.829-6.762c-6.652-2.963-11.385-2.553-18.705-2.912c-11.853-0.584-15.558-2.069-24.568-8.647
		c-7.113-5.193-9.256-9.07-19.335-3.674c-5.628,3.013-9.179,9.857-14.453,13.322c-4.096,2.695-9.282,2.719-13.037,4.933
		c-6.987,4.122-11.879,15.347-18.822,17.122l0.151,0.026c-42.23,9.875-51.568,35.28-104.072,56.598
		c-18.12,7.356-29.437,1.283-46.127-2.135c-21.884-4.484-37.331-2.563-52.134,7.685C8.307,225.987,5.635,229.204-1.816,240
		c6.558,11.874,37.257,16.019,49.912,19.173c40.757,10.157,118.379-21.378,145.941-53.127l10.797-18.522
		c39.581,4.882,86.536,20.719,121.828,24.023c34.202,3.202,72.218,5.203,104.021-9.934c21.127-10.055,36.4-27.538,52.732-43.699
		c27.931-27.637,50.989-34.934,87.842-44.652c21.501-5.67,45.133-18.39,58.483-36.38c7.205-9.709,23.152-30.266,22.567-78.995
		L576.815-2.916z"/>
</g>
</svg>
