<?xml version="1.0" encoding="utf-8"?>
<!-- Generator: Adobe Illustrator 17.0.0, SVG Export Plug-In . SVG Version: 6.00 Build 0)  -->
<!DOCTYPE svg PUBLIC "-//W3C//DTD SVG 1.1//EN" "http://www.w3.org/Graphics/SVG/1.1/DTD/svg11.dtd">
<svg version="1.1" id="Слой_1" xmlns="http://www.w3.org/2000/svg" xmlns:xlink="http://www.w3.org/1999/xlink" x="0px" y="0px"
	 width="302.985px" height="586.471px" viewBox="0 0 302.985 586.471" enable-background="new 0 0 302.985 586.471"
	 xml:space="preserve">
<g>
	<path fill="#FEFEFE" d="M246.405,27.385c3.403,9.357,3.403,19.807,0,29.164c4.618-1.702,9.478-2.552,14.582-2.552
		c4.982,0,9.964,0.85,14.582,2.552c-1.702-4.618-2.552-9.6-2.552-14.582c0-5.104,0.85-9.964,2.552-14.582
		C266.091,30.788,255.762,30.788,246.405,27.385z M285.897,72.467l-0.486-0.608c-13.488-13.366-35.36-13.366-48.848,0l-0.486,0.608
		l-5.59-5.59l0.608-0.486c13.366-13.488,13.366-35.36,0-48.848l-0.608-0.486l5.59-5.59l0.486,0.608
		c6.561,6.44,15.189,10.085,24.424,10.085c9.235,0,17.863-3.645,24.424-10.085l0.486-0.608l5.59,5.59l-0.608,0.486
		c-6.44,6.561-10.085,15.189-10.085,24.424s3.645,17.863,10.085,24.424l0.608,0.486L285.897,72.467z"/>
	<path fill="none" stroke="#FEFEFE" stroke-width="5" d="M41.487,82.467c8.343,0,15,6.742,15,15c0,8.343-6.657,15-15,15
		c-8.258,0-15-6.657-15-15C26.487,89.209,33.229,82.467,41.487,82.467z"/>
	<path fill="#FEFEFE" d="M39.246,558.783l-4.559-4.621l9.757-9.695l4.559,4.621L39.246,558.783z"/>
	<path fill="#FEFEFE" d="M28.182,558.783l-9.695-9.695l4.621-4.621l9.695,9.695L28.182,558.783z"/>
	<path fill="#FEFEFE" d="M23.108,574.983l-4.621-4.56l9.695-9.756l4.621,4.559L23.108,574.983z"/>
	<path fill="#FEFEFE" d="M44.443,574.983l-9.757-9.757l4.559-4.559l9.757,9.756L44.443,574.983z"/>
</g>
</svg>
