<?xml version="1.0" encoding="utf-8"?>
<!-- Generator: Adobe Illustrator 17.0.0, SVG Export Plug-In . SVG Version: 6.00 Build 0)  -->
<!DOCTYPE svg PUBLIC "-//W3C//DTD SVG 1.1//EN" "http://www.w3.org/Graphics/SVG/1.1/DTD/svg11.dtd">
<svg version="1.1" id="Слой_1" xmlns="http://www.w3.org/2000/svg" xmlns:xlink="http://www.w3.org/1999/xlink" x="0px" y="0px"
	 width="2078.431px" height="1080px" viewBox="0 0 2078.431 1080" enable-background="new 0 0 2078.431 1080" xml:space="preserve">
<path fill="#154A6D" d="M1091.655,0c59.955,209.518,359.6,94.884,525.531,211.271c44.004,30.865,67.634,71.768,119.584,95.725
	c54.682,25.217,117.445,24.625,174.97,36.013c79.657,15.77,126.059,53.324,166.691,106.301V0"/>
<path fill="#8AC567" d="M899.905,0.718c-16.129,3.962-33.601,7.358-52.498,10.209c-75.008,11.32-96.52,60.537-149.734,104.622
	c-66.759,55.314-125.967,52.239-209.336,44.688c-76.936-6.965-194.357-63.554-264.623-21.815
	c-72.615,43.136-123.678,106.595-197.402,119.277c-7.929,1.363-16.952,1.711-26.311,1.396L0,0"/>
<path fill="#B9DB9C" d="M723.834,0c-19.088,32.105-35.477,62.125-83.65,79.796c-7.284-1.939-17.223,0.979-25.064,1.561
	c-23.22,1.723-32.357-3.493-49.932-12.572c-20.473-10.573-35.211-0.462-55.349-6.408c-7.875-2.324-10.253-8.887-17.574-12.171
	c-11.896-5.331-20.358-4.594-33.445-5.241c-21.195-1.051-27.818-3.725-43.93-15.562c-12.718-9.346-16.549-16.325-34.571-6.612
	c-10.063,5.422-16.413,17.739-25.843,23.978c-7.324,4.85-16.596,4.894-23.31,8.878c-12.493,7.417-21.239,27.622-33.654,30.815
	l0.272,0.047c-71.131,16.741-90.084,58.288-170.516,95.123c-7.468,0.076-14.533-0.116-21.737-3.062
	c-12.408-5.075-16.468-15.416-32.798-16.241c-12.978-0.657-15.042,9.158-30.55,0.295C29.61,155.439,16.452,140.423,0,139.75v133.514
	c72.875,18.279,202.051-41.967,251.333-99.108l19.307-33.338c70.771,8.788,154.726,37.291,217.828,43.237
	c61.153,5.763,129.128,9.365,185.992-17.878c37.774-18.096,65.083-49.563,94.285-78.65c44.382-44.204,77.161-71.69,131.208-86.823
	L723.834,0z"/>
<path fill="#8AC567" d="M0,400.75c17.296-12.627,25.811-20.351,47.864-24.897c17.144-3.537,31.24-0.147,48.361-7.922
	c34.688-15.758,64.613-67.039,106.863-61.314c33.68,4.563,43.913,44.119,73.231,53.411c31.44,9.963,57.201-4.901,87.975,18.482
	c34.067,25.886,49.354,33.231,92.446,37.212c23.194,2.143,93.864,24.428,78.392,63.843c-5.823,14.839-48.836,27.794-64.278,32.633
	c-47.178,14.786-86.563,9.369-125.581-19.986c-58.175-43.77-106.08,6.003-165.035,26.513
	c-37.912,13.189-62.938,16.889-111.424-3.881C37.79,501.558,15.75,524,0,526.782V400.75"/>
</svg>
