<?xml version="1.0" encoding="utf-8"?>
<!-- Generator: Adobe Illustrator 17.0.0, SVG Export Plug-In . SVG Version: 6.00 Build 0)  -->
<!DOCTYPE svg PUBLIC "-//W3C//DTD SVG 1.1//EN" "http://www.w3.org/Graphics/SVG/1.1/DTD/svg11.dtd">
<svg version="1.1" id="Слой_1" xmlns="http://www.w3.org/2000/svg" xmlns:xlink="http://www.w3.org/1999/xlink" x="0px" y="0px"
	 width="369.87px" height="134.042px" viewBox="0 0 369.87 134.042" enable-background="new 0 0 369.87 134.042"
	 xml:space="preserve">
<path fill="#134A6D" d="M93.927,147.033c-7.139-21.519,29.775-67.853,55.1-58.844c-4.501,20.779-33.426,51.647-52.421,62.853"/>
<path fill="#005A87" d="M373.385,61.3c-2.658-5.241-29.502-24.041-40.835-30.334c-18.875-10.481-38.835-14.169-63.79-10.601
	c-19.038,2.722-33.37,13.63-49.549,28.269c-12.297,11.128-24.269,20.192-43.988,20.697c-26.273,0.672-47.736,3.634-73.928,10.796
	c-15.423,4.218-80.492,30.597-91.268,55.333c16.204,3.548,371.326,3.721,373,8.582"/>
<path fill="#2B82BD" d="M231.961,137.338c1.307-19.157-17.094-36.198-25.964-50.296c-3.261,17.08,1.949,40.956,11.917,54"/>
<path fill="#F8C11E" d="M222.027,138.95c-4.586-15.132-22.927-22.355-37-26.908c6.626,15.083,17.268,35.302,35.98,37"/>
<path fill="#8BC767" d="M337.865,77.283l-9.121,5.59l3.642-8.964c-11.197-6.281-24.108-9.867-37.859-9.867
	c-18.277,0-36.114,7.108-49.364,17.69l6.233,13.815l-12.076-8.39c-13.785,13.991-22.293,33.193-22.293,54.385
	c0,42.801,34.698,77.5,77.5,77.5s77.5-34.699,77.5-77.5C372.027,114.794,358.477,91.211,337.865,77.283z"/>
<path fill="none" stroke="#FEFEFE" stroke-width="1.987" stroke-miterlimit="10" d="M277.027,83.042
	c4.999,10.56,11.428,19.201,20,24"/>
<path fill="none" stroke="#FEFEFE" stroke-width="1.987" stroke-miterlimit="10" d="M251.027,115.042
	c6.667,10.116,12.666,20.907,22,29"/>
<path fill="#B27D2F" d="M208.788,133.924c-4.763-5.13-11.098-10.713-15.761-15.882c2.971,1.721,16.462,12.447,20,16"/>
<path fill="#134A6D" d="M199.027,142.132c-3.813-10.7-29.429-20.936-40-21.09c4.601,10.719,26.291,23.932,36.941,21.764"/>
<path fill="none" stroke="#134A6D" stroke-width="1.49" stroke-miterlimit="10" d="M134.027,107.042
	c-5.371,11.709-8.544,23.088-11,35"/>
<path fill="#134A6D" d="M127.981,123.986c0.333-2.232-1.194-4.557-2.951-5.944c-0.033,2.414,0.155,6.907,2.906,8"/>
<path fill="#134A6D" d="M131.883,112.143c0.723-0.228,2.081-0.839,3.144-1.101c-0.632,2.22-3.197,3.881-5,5"/>
<path fill="#F16F5A" d="M135.112,102.949c-0.317-0.781,0.277-1.605,1.325-1.841c1.046-0.235,1.926,0.173,2.465,0.988
	c0.474,0.712-0.48,1.65-1.527,1.886C136.327,104.219,135.428,103.73,135.112,102.949z"/>
<path fill="#F16F5A" d="M132.09,106.971c-0.236-0.795,0.209-1.635,0.989-1.876c0.782-0.239,1.653,0.365,1.888,1.161
	c0.236,0.796-0.252,1.482-1.034,1.721C133.151,108.218,132.327,107.767,132.09,106.971z"/>
<path fill="#F16F5A" d="M129.343,96.082c0.249-0.108,0.537,0.01,0.644,0.262c0.106,0.252-0.005,0.486-0.26,0.65
	c-0.221,0.144-0.557-0.058-0.664-0.311C128.957,96.432,129.093,96.189,129.343,96.082z"/>
<path fill="#F16F5A" d="M127.333,94.121c0.256-0.213,0.551,0.019,0.66,0.519c0.109,0.499-0.059,1.115-0.314,1.33
	c-0.256,0.211-0.502-0.062-0.612-0.559C126.959,94.911,127.077,94.334,127.333,94.121z"/>
<path fill="#2B82BD" d="M122.638,141.042c2.84-11.517-10.561-24.248-17.611-32c2.789,10.194-0.724,31.579,16.572,31.489"/>
<path fill="#134A6D" d="M129.027,139.046c-6.562-4.153-21.902-18.685-29.768-23.79c-4.212-2.733-13.135-7.17-19.232-6.031
	c4.023,0.694,6.347,5.723,8.115,9.475C95.345,133.979,110.29,148.476,129.027,139.046z"/>
</svg>
