<?xml version="1.0" encoding="utf-8"?>
<!-- Generator: Adobe Illustrator 17.0.0, SVG Export Plug-In . SVG Version: 6.00 Build 0)  -->
<!DOCTYPE svg PUBLIC "-//W3C//DTD SVG 1.1//EN" "http://www.w3.org/Graphics/SVG/1.1/DTD/svg11.dtd">
<svg version="1.1" id="Слой_1" xmlns="http://www.w3.org/2000/svg" xmlns:xlink="http://www.w3.org/1999/xlink" x="0px" y="0px"
	 width="2312.5px" height="390.166px" viewBox="0 0 2312.5 390.166" enable-background="new 0 0 2312.5 390.166"
	 xml:space="preserve">
<g>
	<path fill="#015987" d="M2242.523,224.783c-6.201-12.314-68.88-56.49-95.345-71.276c-44.068-24.626-90.675-33.294-148.949-24.91
		c-44.455,6.398-77.916,32.026-115.692,66.426c-28.719,26.146-56.673,47.445-102.719,48.63
		c-61.344,1.58-111.459,8.539-172.619,25.37c-36.011,9.91-187.948,71.898-213.107,130.019c37.836,8.332,867.043,8.74,870.949,20.162
		"/>
	<path fill="#104A6D" d="M2130.738,250.376c-33.063-81.694-103.015-153.619-194.454-167.146
		c11.31,67.511,111.408,140.54,162.757,180.748"/>
	<path fill="none" stroke="#FAFDFF" stroke-width="0.248" stroke-miterlimit="10" d="M2124.7,252.392
		c-15.43-24.185-165.99-158.876-193.149-171.976"/>
	<path fill="#104A6D" d="M2138.927,252.832c-1.479-7.078,2.672-21.045,2.489-30.832c-0.5-26.314-11.596-54.043-23.813-77.977
		c-18.153-35.578-53.104-63.331-86.126-88.463c4.651,26.336,18.01,161.497,121.392,229.075"/>
	<path fill="none" stroke="#FAFDFF" stroke-width="0.248" stroke-miterlimit="10" d="M2031.283,53.079
		c15.491,20.54,30.198,42.071,42.201,64.267c21.305,38.427,42.599,77.516,49.952,119.92"/>
	<path fill="#2882BE" d="M2012.007,359.472c3.947-58.825-51.645-111.148-78.436-154.435c-9.852,52.445,5.885,125.757,36.001,165.807
		"/>
	<path fill="#FBC218" d="M1981.453,362.572c-13.931-46.485-69.604-68.671-112.326-82.657c20.122,46.33,52.42,108.438,109.226,113.66
		"/>
	<path fill="#B37D2C" d="M1942.719,346.428c-14.961-15.002-34.869-31.336-49.524-46.456c9.342,5.033,51.727,36.411,62.843,46.803"/>
	<path fill="#104A6D" d="M1952.581,391.719c-11.728-31.87-90.501-62.354-123.014-62.812c14.156,31.921,80.854,71.277,113.611,64.821
		"/>
	<path fill="#8CC866" d="M2234.089,233.209l-21.886,13.448l8.74-21.565c-26.863-15.109-57.835-23.736-90.817-23.736
		c-43.843,0-86.636,17.101-118.414,42.554l14.951,33.234l-28.964-20.183c-33.074,33.658-53.481,79.85-53.481,130.832
		c0,102.954,83.23,186.428,185.908,186.428c102.678,0,185.908-83.474,185.908-186.428
		C2316.034,323.44,2283.531,266.714,2234.089,233.209z"/>
	<path fill="none" stroke="#FFFFFF" stroke-width="1.987" stroke-miterlimit="10" d="M2088.751,248.488
		c12.044,25.346,27.536,46.087,48.177,57.606"/>
	<path fill="none" stroke="#FFFFFF" stroke-width="1.987" stroke-miterlimit="10" d="M2025.908,324.95
		c16.195,24.476,30.759,50.584,53.42,70.165"/>
	<path fill="#104A6D" d="M1759.738,330.284c0.683-5.721-2.448-11.672-6.048-15.224c-0.061,6.178,0.316,17.692,5.956,20.487"/>
	<path fill="#104A6D" d="M1770.538,300.127c1.785-0.513,5.12-1.891,7.73-2.481c-1.55,5.002-7.853,8.746-12.289,11.267"/>
	<path fill="none" stroke="#104A6D" stroke-width="1.49" stroke-miterlimit="10" d="M1780.319,271.012
		c-15.502,36.325-24.66,71.622-31.758,108.581"/>
	<path fill="#F3705A" d="M1785.571,266.724c-0.49-1.599,0.428-3.288,2.04-3.77c1.601-0.483,2.958,0.354,3.784,2.023
		c0.734,1.458-0.734,3.381-2.346,3.864C1787.437,269.326,1786.06,268.324,1785.571,266.724z"/>
	<path fill="#F3705A" d="M1778.401,274.965c-0.479-1.631,0.428-3.351,2.03-3.845c1.601-0.49,3.386,0.748,3.865,2.379
		c0.479,1.631-0.52,3.037-2.121,3.526C1780.574,277.519,1778.881,276.595,1778.401,274.965z"/>
	<path fill="#F3705A" d="M1772.394,279.37c1.02-0.44,2.203,0.041,2.641,1.074c0.428,1.032-0.02,1.991-1.061,2.665
		c-0.918,0.588-2.285-0.24-2.723-1.274C1770.814,280.804,1771.375,279.81,1772.394,279.37z"/>
	<path fill="#F3705A" d="M1766.204,275.271c1.05-0.435,2.264,0.04,2.713,1.064c0.438,1.022-0.245,2.284-1.295,2.724
		c-1.051,0.434-2.05-0.125-2.499-1.145C1764.674,276.89,1765.164,275.707,1766.204,275.271z"/>
	<path fill="#2882BE" d="M1774.995,419.633c10.372-43.17-38.56-90.889-64.301-119.938c10.178,38.208-2.641,118.357,60.508,118.021"
		/>
	<path fill="#104A6D" d="M1801.052,413.228c-24.854-15.716-82.975-70.706-112.785-90.022c-15.96-10.339-49.768-27.13-72.868-22.818
		c15.247,2.624,24.048,21.655,30.748,35.852C1673.439,394.055,1730.061,448.912,1801.052,413.228z"/>
</g>
<path fill="#104A6D" d="M773.918,406.943c28.836-71.257,89.849-134,169.611-145.798c-9.861,58.887-97.174,122.587-141.97,157.659"/>
<path fill="none" stroke="#FAFDFF" stroke-width="0.248" stroke-miterlimit="10" d="M779.183,408.697
	c13.455-21.09,144.785-138.58,168.477-150.006"/>
<path fill="#A3DCEB" d="M419.826,382.293c-9.314-41.11,41.606-105.795,83.911-112.183c26.834,38.142-53.556,109.409-87.418,112.183"
	/>
<path fill="#2882BE" d="M439.776,389.86c0.648-29.596,79.277-69.39,112.183-57.387c-13.159,42.487-83.557,38.326-112.183,68.177"/>
<path fill="#015987" d="M-9.451,125.489c172-191.906,389.982-41.15,408.302-4.146c3.759,7.592,15.061,28.184,23,31.812
	c8.539,3.901,22.075-4.05,31.093-6.429c26.694-7.038,57.965-10.05,85.547-8.728c139.813,6.699,228.036,82.243,298.645,159.342
	c23.353,25.496,67.156,86.656,66.666,94.438c-0.937,14.9-15.399,13.962-29.992,13.962c-128.08,0.01-943.799,23.666-947.261,15.079"
	/>
<path fill="#2882BE" d="M783.026,391.91c13.871-28.668-28.838-67.555-47.495-84.066c13.469,32.757,8.176,86.718,58.131,86.687"/>
<path fill="#104A6D" d="M766.773,409.084c1.283-6.17-2.332-18.357-2.172-26.893c0.432-22.957,10.115-47.137,20.771-68.014
	c15.838-31.039,46.316-55.247,75.124-77.169c-4.053,22.972-15.704,140.868-105.883,199.815"/>
<path fill="none" stroke="#FAFDFF" stroke-width="0.248" stroke-miterlimit="10" d="M860.666,234.844
	c-13.51,17.917-26.345,36.697-36.814,56.059c-18.576,33.513-37.152,67.617-43.57,104.607"/>
<path fill="#FBC218" d="M426.518,389.432c9.132-15.43,31.499-85.31,87.707-97.905c-14.208,46.893-38.848,65.189-61.457,87.35"/>
<path fill="#2882BE" d="M441.482,391.788c36.72-50.064,75.219-73.439,140.052-72.705c-19.708,47.902-119.123,77.06-161.136,81.567"
	/>
<path fill="#B37D2C" d="M460.193,345.385c6.868-9.597,30.4-27.465,39.754-36.521c-10.815,16.654-34.302,39.784-45.893,56.092"/>
<path fill="#B37D2C" d="M459.228,328.241c-0.685-17.46,3.173-40.245,17.262-52.012c-1.965,16.102-3.896,34.481-7.828,50.268"/>
<path fill="#104A6D" d="M434.559,251.133l-34.724,22.673l24.457-33.849c-6.766-6.778-14.06-13.029-21.802-18.701l-23.716,16.275
	l10.564-25.088c-28.102-17.115-61.11-26.981-96.42-26.981c-102.513,0-185.612,83.102-185.612,185.612
	c0,102.515,83.099,185.612,185.612,185.612c102.511,0,185.612-83.097,185.612-185.612
	C478.53,325.345,461.982,283.484,434.559,251.133z"/>
<path fill="none" stroke="#FFFFFF" stroke-width="1.987" stroke-miterlimit="10" d="M339.831,277.249
	c-16.958,43.721-35.22,86.106-56.092,128.501"/>
<path fill="none" stroke="#FFFFFF" stroke-width="1.987" stroke-miterlimit="10" d="M296.997,252.772
	c4.799,37.225,13.419,53.032,25.496,66.29"/>
<path fill="none" stroke="#FFFFFF" stroke-width="1.987" stroke-miterlimit="10" d="M398.982,333.34
	c-12.898,20.927-28.376,41.855-43.853,60.171"/>
<path fill="none" stroke="#104A6D" stroke-width="1.49" stroke-miterlimit="10" d="M609.07,389.432
	c2.798-2.764,50.352-87.37,65.27-103.005"/>
<path fill="none" stroke="#104A6D" stroke-width="1.49" stroke-miterlimit="10" d="M598.872,389.432
	c7.77-37.561,14.569-69.35,20.397-104.024"/>
<path fill="#104A6D" d="M614.846,309.119c2.219-7.853-6.749-17.201-13.934-20.652c0.5,6.496,2.891,28.535,12.735,25.139"/>
<path fill="#104A6D" d="M609.14,340.55c1.467-4.304,6.786-9.638,11.149-11.29c-0.932,8.026-5.102,14.451-14.278,16.318"/>
<path fill="#104A6D" d="M659.846,307.181c3.133-5.558-0.12-16.601-4.93-20.754c-0.282,7.486-5.814,19.224,2.884,24.476
	c0.534,0.01,0.834-0.255,0.899-0.796"/>
<path fill="#104A6D" d="M630.911,353.095c4.324-3.355,12.433-5.976,18.953-5.395c-1.485,5.619-18.418,17.521-22.437,11.545"/>
<path fill="#F3705A" d="M631.096,276.341c1.085-2.006,3.567-2.74,5.546-1.641c1.976,1.104,2.44,3.222,1.614,5.63
	c-0.725,2.11-3.951,2.529-5.929,1.428C630.35,280.652,630.011,278.347,631.096,276.341z"/>
<path fill="#F3705A" d="M614.683,276.541c1.106-2.195,3.633-2.995,5.646-1.793c2.014,1.204,2.535,4.384,1.431,6.579
	c-1.105,2.195-3.419,2.568-5.431,1.367C614.314,281.488,613.578,278.736,614.683,276.541z"/>
<path fill="#F3705A" d="M682.03,281.765c1.234,2.782-0.049,6.03-2.864,7.25c-2.813,1.22-5.453,0-7.329-2.835
	c-1.64-2.48,0.596-6.265,3.409-7.486C678.063,277.477,680.8,278.98,682.03,281.765z"/>
<path fill="#F3705A" d="M689.428,295.616c1.113-0.143,2.114,0.857,2.235,2.244c0.124,1.387-0.591,2.366-1.792,2.784
	c-1.05,0.377-2.14-1.112-2.261-2.499C687.488,296.758,688.315,295.769,689.428,295.616z"/>
<path fill="#F3705A" d="M684.318,289.502c1.121-0.152,2.126,0.848,2.251,2.242c0.122,1.394-0.904,2.679-2.023,2.832
	c-1.12,0.153-1.911-0.887-2.034-2.272C682.389,290.908,683.196,289.652,684.318,289.502z"/>
<path fill="#FEFEFE" d="M552.895,211.895c3.471,9.543,3.471,20.2,0,29.743c4.71-1.736,9.666-2.603,14.871-2.603
	c5.081,0,10.162,0.867,14.871,2.603c-1.736-4.71-2.603-9.79-2.603-14.871c0-5.205,0.867-10.162,2.603-14.871
	C572.972,215.365,562.438,215.365,552.895,211.895z M593.171,257.871l-0.496-0.62c-13.756-13.631-36.062-13.631-49.818,0
	l-0.496,0.62l-5.701-5.701l0.62-0.496c13.631-13.756,13.631-36.062,0-49.817l-0.62-0.496l5.701-5.701l0.496,0.62
	c6.691,6.568,15.49,10.285,24.909,10.285s18.218-3.717,24.909-10.285l0.496-0.62l5.701,5.701l-0.62,0.496
	c-6.568,6.691-10.285,15.49-10.285,24.909c0,9.418,3.717,18.217,10.285,24.909l0.62,0.496L593.171,257.871z"/>
</svg>
