<?xml version="1.0" encoding="utf-8"?>
<!-- Generator: Adobe Illustrator 17.0.0, SVG Export Plug-In . SVG Version: 6.00 Build 0)  -->
<!DOCTYPE svg PUBLIC "-//W3C//DTD SVG 1.1//EN" "http://www.w3.org/Graphics/SVG/1.1/DTD/svg11.dtd">
<svg version="1.1" id="Слой_1" xmlns="http://www.w3.org/2000/svg" xmlns:xlink="http://www.w3.org/1999/xlink" x="0px" y="0px"
	 width="460.5px" height="362.5px" viewBox="0 0 460.5 362.5" enable-background="new 0 0 460.5 362.5" xml:space="preserve">
<g>
	<path fill="#FEFEFE" d="M201.045,27.214v15.017h-2.546V30.269h-6.871v11.963h-2.799V27.214H201.045z"/>
	<path fill="#FEFEFE" d="M215.296,42.232l-1.273-3.054h-6.363l-1.272,3.054h-2.799l5.853-15.017h2.799l5.854,15.017H215.296z
		 M212.751,36.123l-2.036-5.09l-1.782,5.09H212.751z"/>
	<path fill="#FEFEFE" d="M226.749,27.469c0.509,0.255,1.018,0.509,1.527,1.018c0.509,0.255,0.764,0.764,1.018,1.528
		c0.255,0.509,0.255,1.018,0.255,1.782c0,0.763,0,1.272-0.255,2.036c-0.254,0.509-0.509,1.018-1.018,1.528
		c-0.509,0.254-1.018,0.509-1.527,0.763c-0.509,0.255-1.273,0.509-2.037,0.509h-1.527v5.6h-2.799V27.214h4.326
		C225.476,27.214,225.985,27.214,226.749,27.469z M223.186,33.578h2.036c0.509,0,0.764-0.255,1.273-0.51
		c0.255-0.254,0.509-0.763,0.509-1.272c0-0.51-0.254-0.764-0.509-1.273c-0.254-0.255-0.764-0.509-1.273-0.509h-2.036V33.578z"/>
	<path fill="#FEFEFE" d="M235.147,27.214v5.6l5.09-5.6h3.563l-6.363,7.127l7.126,7.891h-3.817l-5.599-6.109v6.109h-2.799V27.214
		H235.147z"/>
	<path fill="#FEFEFE" d="M225.476,54.448v15.016h-2.799V57.502h-6.617v11.963h-2.799V54.448H225.476z"/>
	<path fill="#FEFEFE" d="M235.91,54.702c0.509,0.255,1.019,0.509,1.528,1.018c0.254,0.51,0.763,1.019,1.018,1.528
		c0.254,0.509,0.254,1.273,0.254,1.782c0,0.763,0,1.527-0.254,2.036c-0.255,0.509-0.509,1.019-1.018,1.528
		c-0.509,0.254-1.019,0.763-1.528,1.018c-0.763,0-1.272,0.255-2.036,0.255h-1.527v5.599h-2.799V54.448h4.326
		C234.639,54.448,235.148,54.448,235.91,54.702z M232.348,60.811h2.036c0.509,0,0.764,0,1.018-0.509
		c0.509-0.255,0.509-0.764,0.509-1.273c0-0.255,0-0.764-0.254-1.018c-0.509-0.51-0.764-0.51-1.273-0.51h-2.036V60.811z"/>
	<path fill="#FEFEFE" d="M251.435,69.465V59.283l-7.126,10.181h-2.799V54.448h2.799v10.18l7.126-10.18h2.799v15.016H251.435z"/>
	<path fill="#FEFEFE" d="M260.852,54.448v5.854l5.09-5.854h3.562l-6.362,7.126l7.126,7.891h-3.817l-5.599-6.109v6.109h-2.799V54.448
		H260.852z"/>
	<path fill="#FEFEFE" d="M284.515,69.465h-2.794V57.502h-4.069v1.019c-0.255,1.782-0.255,3.563-0.51,4.835
		c-0.255,1.273-0.51,2.546-0.765,3.309c-0.51,1.018-1.02,1.782-1.53,2.291c-0.51,0.509-1.275,0.764-2.04,0.764
		c-0.245,0-0.5-0.255-0.755-0.255h-0.255l-0.51-2.546c0.255,0,0.765,0,1.02-0.254c0.5,0,0.755-0.255,1.01-0.509
		c0.255-0.509,0.51-0.764,0.765-1.273c0-0.509,0.255-1.273,0.51-2.037c0-1.018,0.255-1.782,0.255-3.054c0-1.272,0-2.545,0-4.072
		v-1.272h9.668V69.465z"/>
	<path fill="#FEFEFE" d="M304.117,54.702c0.765,0.509,1.785,1.018,2.284,1.782c0.765,0.509,1.275,1.273,1.785,2.291
		c0.51,1.018,0.51,2.037,0.51,3.308c0,1.019,0,2.037-0.51,3.054c-0.51,1.019-1.02,1.782-1.785,2.546
		c-0.5,0.509-1.52,1.018-2.284,1.527c-1.02,0.509-2.04,0.509-3.06,0.509c-1.01,0-1.775,0-2.794-0.254
		c-0.765-0.509-1.53-1.018-2.295-1.528c-0.765-0.509-1.265-1.272-1.775-2.036c-0.255-0.764-0.765-1.782-0.765-2.546h-2.295v6.109
		h-2.794V54.447h2.794v5.854h2.295c0.255-1.018,0.51-1.781,1.02-2.545c0.5-0.764,1.01-1.273,1.775-1.782
		c0.51-0.764,1.275-1.018,2.295-1.273c0.765-0.509,1.53-0.509,2.539-0.509C302.077,54.193,303.097,54.447,304.117,54.702z
		 M299.028,57.502c-0.51,0.255-1.02,0.509-1.53,1.019c-0.51,0.254-0.765,0.763-1.02,1.527c-0.255,0.509-0.51,1.273-0.51,2.036
		c0,0.51,0.255,1.273,0.51,1.782c0.255,0.764,0.51,1.273,1.02,1.528c0.51,0.509,1.02,0.764,1.53,1.018
		c0.765,0.255,1.275,0.509,2.029,0.509c0.765,0,1.275-0.254,2.04-0.509c0.51-0.254,1.02-0.509,1.53-1.018
		c0.255-0.255,0.765-0.764,1.02-1.528c0.255-0.509,0.255-1.272,0.255-1.782c0-0.763,0-1.527-0.255-2.036
		c-0.255-0.764-0.765-1.273-1.02-1.527c-0.51-0.51-1.02-0.764-1.53-1.019c-0.765-0.254-1.275-0.254-2.04-0.254
		C300.303,57.248,299.793,57.248,299.028,57.502z"/>
	<path fill="#FEFEFE" d="M313.785,58.521c0,0.763,0.255,1.272,0.51,1.782c0.51,0.254,1.02,0.509,1.785,0.509
		c0.255,0,0.765,0,1.02-0.255c0.245,0,0.5,0,0.755,0v-6.108h2.805v15.016h-2.805v-6.109c-0.255,0.255-0.755,0.255-1.01,0.255
		c-0.255,0-0.765,0-1.275,0c-0.51,0-1.275,0-1.785-0.255c-0.51,0-1.02-0.254-1.53-0.763C312,62.338,311.5,61.829,311.5,61.32
		c-0.255-0.509-0.51-1.018-0.51-1.782v-5.09h2.794V58.521z"/>
	<path fill="#FEFEFE" d="M332.877,54.448v3.053h-5.599v2.801h5.089v3.053h-5.089v3.309h5.599v2.799h-8.404V54.448H332.877z"/>
	<path fill="#FEFEFE" d="M339.24,54.448v5.854h6.864v-5.854h2.805v15.016h-2.805v-6.109h-6.864v6.109h-2.805V54.448H339.24z"/>
	<path fill="#FEFEFE" d="M362.901,69.465V59.283l-7.118,10.181h-2.805V54.448h2.55v10.18l7.373-10.18h2.55v15.016H362.901z"/>
	<path fill="#FEFEFE" d="M379.443,69.462v-10.18l-7.118,10.18h-2.805V54.446h2.805v10.181l7.118-10.181h2.805v15.016H379.443z
		 M379.188,51.901c-0.255,0.255-0.51,0.509-0.755,1.019c-0.51,0.254-0.765,0.254-1.275,0.509c-0.51,0.254-0.765,0.254-1.275,0.254
		s-1.02,0-1.53-0.254c-0.51-0.255-0.765-0.255-1.02-0.509c-0.5-0.51-0.755-0.764-0.755-1.019c-0.255-0.509-0.51-1.018-0.51-1.527
		l2.029-0.255c0.255,0.509,0.255,0.764,0.51,1.019c0.255,0.254,0.765,0.509,1.275,0.509s0.765-0.255,1.02-0.509
		c0.255-0.255,0.51-0.51,0.51-1.019l2.029,0.255C379.443,50.883,379.188,51.392,379.188,51.901z"/>
	<path fill="#FEFEFE" d="M198.754,69.719V59.538l-7.126,10.181h-2.799V54.702h2.799v10.181l7.126-10.181h2.799v15.017H198.754z"/>
	<path fill="#FEFEFE" d="M256.525,31.287c0,0.764,0.255,1.528,0.764,1.782c0.254,0.255,0.764,0.51,1.527,0.51
		c0.509,0,0.764,0,1.018-0.255c0.255,0,0.509,0,0.764,0v-6.109h2.799v15.017h-2.799v-5.854c-0.255,0-0.509,0-0.764,0
		c-0.509,0-0.763,0-1.272,0c-0.764,0-1.273,0-1.782-0.255c-0.764,0-1.273-0.254-1.527-0.509c-0.51-0.509-0.764-1.018-1.019-1.527
		c-0.254-0.509-0.254-1.019-0.254-1.782v-5.091h2.544V31.287z"/>
	<path fill="#FEFEFE" d="M268.995,27.214l3.058,6.873l2.794-6.873h3.06l-6.109,15.017h-3.058l2.037-4.836l-4.581-10.181H268.995z"/>
	<path fill="#FEFEFE" d="M292.409,39.432v6.108h-2.55v-3.308h-9.668v3.308h-2.539v-6.108h1.265c0.765-1.782,1.53-3.309,2.04-5.091
		s0.765-3.817,0.765-5.854v-1.273h8.648v12.218H292.409z M287.83,30.269h-3.569c0,1.528-0.255,3.309-0.755,4.836
		c-0.255,1.527-0.765,2.799-1.53,4.327h5.854V30.269z"/>
	<path fill="#FEFEFE" d="M303.862,27.214v3.054h-5.599v2.799h5.089v3.054h-5.089v3.309h5.599v2.799h-8.404V27.214H303.862z"/>
	<path fill="#FEFEFE" d="M318.874,40.959c-0.51,0.254-0.765,0.764-1.275,0.764c-0.5,0.254-1.01,0.509-1.775,0.763
		c-0.51,0-1.275,0-1.785,0c-1.02,0-2.04,0-3.049-0.509c-0.765-0.254-1.785-0.764-2.295-1.527c-0.765-0.764-1.275-1.528-1.785-2.546
		c-0.51-1.018-0.51-2.036-0.51-3.054c0-1.273,0-2.291,0.51-3.308c0.51-1.018,1.02-1.782,1.785-2.546
		c0.51-0.509,1.53-1.018,2.295-1.527c1.01-0.255,2.029-0.509,3.049-0.509c0.51,0,1.275,0,1.785,0.254c0.51,0,1.275,0.255,1.52,0.509
		c0.51,0.255,1.02,0.51,1.275,0.764c0.51,0.509,0.765,0.764,1.02,1.018l-1.02,2.546c0-0.255-0.255-0.509-0.765-0.764
		c-0.255-0.254-0.51-0.509-1.01-0.763c-0.255-0.255-0.765-0.255-1.275-0.51c-0.255,0-0.765,0-1.275,0c-0.765,0-1.53,0-2.295,0.255
		c-0.5,0.255-1.01,0.509-1.52,1.018c-0.51,0.255-0.765,0.764-1.02,1.528c-0.255,0.509-0.255,1.273-0.255,2.036
		c0,0.764,0,1.273,0.255,2.037c0.255,0.509,0.51,1.018,1.02,1.527c0.51,0.255,1.02,0.764,1.52,0.764
		c0.765,0.254,1.53,0.509,2.295,0.509c0.51,0,1.02,0,1.53-0.255c0.255,0,0.765-0.254,1.275-0.509
		c0.245-0.254,0.755-0.509,1.01-0.763c0.255-0.255,0.51-0.51,0.765-0.764l0.765,2.546C319.384,40.195,319.129,40.704,318.874,40.959
		z"/>
	<path fill="#FEFEFE" d="M97.21,187.053L93.138,91.1H41.985L19.08,187.053H8.137v36.905h20.105v-15.78h58.534v15.78h20.105v-36.905
		H97.21z M38.931,187.053l18.324-72.793h17.56l1.782,72.793H38.931z"/>
	<path fill="#FEFEFE" d="M136.912,91.1h-19.087v117.078h19.087v-34.87c22.904,0,39.192-17.052,39.192-41.231
		C176.104,108.152,159.816,91.1,136.912,91.1z M136.912,149.639V114.26c10.943,0,19.086,5.345,19.086,17.817
		C155.998,144.294,147.855,149.639,136.912,149.639z"/>
	<path fill="#FEFEFE" d="M206.644,165.419V91.1h-18.833v117.078h20.105l26.467-69.229l-2.545,69.229h19.341l2.546-116.825h-20.36
		L206.644,165.419z"/>
	<path fill="#FEFEFE" d="M233.875,278.678c4.326-5.091,7.126-11.454,7.126-19.343c0-17.817-13.487-32.833-34.865-32.833h-18.324
		v116.824h18.324c23.414,0,41.992-10.69,41.992-38.178C248.127,292.93,242.273,284.023,233.875,278.678z M206.899,247.881
		c10.943,0,15.015,5.854,15.015,11.963c0,6.108-4.327,11.962-15.015,11.962V247.881z M206.899,321.691v-32.069
		c12.979,0,21.632,4.581,21.632,16.035C228.531,317.11,219.624,321.691,206.899,321.691z"/>
	<path fill="#FEFEFE" d="M297.498,226.502l-15.267,43.522l-17.308-43.522h-22.396l29.781,71.011l-16.292,46.068h21.636
		l41.477-117.078H297.498z"/>
	<path fill="#FEFEFE" d="M382.502,322.201l-9.168-95.699h-43.517c0,0-10.178,72.793-19.591,95.699h-11.708v37.159h20.101v-16.034
		h54.97v16.034h19.857v-37.159H382.502z M331.857,322.201c6.874-21.635,11.708-49.377,14.247-72.793h9.933l5.844,72.793H331.857z"/>
	<path fill="#FEFEFE" d="M315.315,164.91L292.664,91.1h-19.091l-4.068,117.078h18.836l1.52-64.902l14.767,45.05h19.336
		l23.416-51.413v71.265h18.837V91.1h-19.092L315.315,164.91z"/>
	<path fill="#FEFEFE" d="M154.981,347.652l-1.018-1.018c-12.216-12.217-28.504-19.09-45.554-19.09
		c-17.306,0-33.594,6.873-45.555,19.09l-1.273,1.018l-10.18-10.435l1.018-1.018c25.195-25.197,25.195-65.921,0-91.118l-1.018-1.018
		l10.18-10.435l1.273,1.018c11.961,12.217,28.249,18.835,45.555,18.835c17.051,0,33.339-6.618,45.554-18.835l1.018-1.018
		l10.18,10.435l-1.018,1.018c-24.94,25.197-24.94,65.921,0,91.118l1.018,1.018L154.981,347.652z M108.408,313.038
		c9.416,0,18.579,1.528,26.976,4.836c-6.362-17.562-6.362-36.905,0-54.467c-8.397,3.054-17.56,4.836-26.976,4.836
		c-9.416,0-18.579-1.782-27.231-4.836c3.053,8.653,4.835,17.816,4.835,27.233c0,9.417-1.782,18.581-4.835,27.234
		C89.83,314.565,98.992,313.038,108.408,313.038z"/>
	<path fill="#FEFEFE" d="M443.836,100.771l-0.255,0.509L443.836,100.771z M402.603,100.771l0.255,0.509L402.603,100.771z
		 M443.581,101.28c-11.198,11.199-11.198,29.27,0,40.469l0.255,0.509l-0.255-0.509c-5.599-5.599-12.983-8.399-20.366-8.399
		c-7.373,0-14.757,2.801-20.356,8.399c11.198-11.199,11.198-29.27,0-40.469c5.599,5.6,12.983,8.399,20.356,8.399
		C430.598,109.679,437.982,106.88,443.581,101.28z M402.858,141.748l-0.255,0.509L402.858,141.748z M433.658,90.59l-0.51,0.255
		l10.433,10.435l-10.433-10.435c-2.55,2.799-6.109,4.072-9.933,4.072c-3.814,0-7.373-1.273-9.923-4.072l-0.51-0.255l-20.611,20.616
		l0.51,0.509c5.344,5.345,5.344,14.253,0,19.852l-0.51,0.255l20.611,20.87l0.51-0.509c2.55-2.545,6.109-4.072,9.923-4.072
		c3.824,0,7.384,1.528,9.933,4.072l0.51,0.509l20.611-20.87l-0.51-0.255c-5.344-5.599-5.344-14.507,0-19.852l0.51-0.509
		L433.658,90.59z"/>
	<path fill="#FEFEFE" d="M143.274,36.377L132.84,25.942l22.141-21.889l10.18,10.181L143.274,36.377z"/>
	<path fill="#FEFEFE" d="M118.333,36.377L96.192,14.234l10.434-10.181l21.887,21.889L118.333,36.377z"/>
	<path fill="#FEFEFE" d="M106.627,73.028L96.192,62.593l22.141-21.889l10.18,10.181L106.627,73.028z"/>
	<path fill="#FEFEFE" d="M154.981,73.028L132.84,50.885l10.434-10.181l21.887,21.889L154.981,73.028z"/>
</g>
</svg>
