<?xml version="1.0" encoding="utf-8"?>
<!-- Generator: Adobe Illustrator 17.0.0, SVG Export Plug-In . SVG Version: 6.00 Build 0)  -->
<!DOCTYPE svg PUBLIC "-//W3C//DTD SVG 1.1//EN" "http://www.w3.org/Graphics/SVG/1.1/DTD/svg11.dtd">
<svg version="1.1" id="Слой_1" xmlns="http://www.w3.org/2000/svg" xmlns:xlink="http://www.w3.org/1999/xlink" x="0px" y="0px"
	 width="87px" height="86.917px" viewBox="0 0 87 86.917" enable-background="new 0 0 87 86.917" xml:space="preserve">
<g>
	<path fill="#3B5998" d="M43.505,85.444c23.181,0,41.977-18.798,41.977-41.986c0-23.187-18.796-41.985-41.977-41.985
		c-23.191,0-41.987,18.798-41.987,41.985C1.518,66.646,20.314,85.444,43.505,85.444z"/>
	<path fill="#FEFEFE" d="M54.06,45.102h-7.496v27.446H35.214V45.102h-5.395v-9.646h5.395v-6.241c0-4.464,2.121-11.454,11.453-11.454
		l8.404,0.036v9.362h-6.099c-0.999,0-2.407,0.501-2.407,2.629v5.678h8.485L54.06,45.102z"/>
</g>
</svg>
