<?xml version="1.0" encoding="utf-8"?>
<!-- Generator: Adobe Illustrator 17.0.0, SVG Export Plug-In . SVG Version: 6.00 Build 0)  -->
<!DOCTYPE svg PUBLIC "-//W3C//DTD SVG 1.1//EN" "http://www.w3.org/Graphics/SVG/1.1/DTD/svg11.dtd">
<svg version="1.1" id="Слой_1" xmlns="http://www.w3.org/2000/svg" xmlns:xlink="http://www.w3.org/1999/xlink" x="0px" y="0px"
	 width="87px" height="86.917px" viewBox="0 0 87 86.917" enable-background="new 0 0 87 86.917" xml:space="preserve">
<g>
	<path fill="#2B82BD" d="M85.634,42.882c0,23.193-18.799,41.99-41.987,41.99S1.66,66.076,1.66,42.882
		c0-23.187,18.799-41.984,41.987-41.984S85.634,19.702,85.634,42.882z"/>
	<path fill="#FEFEFE" d="M69.541,55.389l-0.163-0.088l-5.401-2.857l-2.368-1.256l-7.2-3.809l-4.173-2.208l-6.588-3.485l1.818,6.476
		l0.421,1.506l2.388,8.55l0.983,3.505l3.135,11.224l3.224-4.687l2.639-3.843l7.79,9.657l4.554-3.64l-6.447-7.997l-1.344-1.66
		l9.629-3.85L69.541,55.389z"/>
	<path fill="#FEFEFE" d="M43.05,66.18c-1.169,0-3.042-2.067-4.612-6.683c-0.76-2.23-1.369-4.792-1.811-7.579h6.727l-1.223-4.298
		h-6.036c-0.207-2.292-0.318-4.677-0.318-7.131s0.111-4.839,0.318-7.131h13.904c0.215,2.292,0.325,4.677,0.325,7.131
		c0,0.251-0.007,0.495-0.007,0.746l4.335,2.258c0.035-0.996,0.055-2,0.055-3.003c0-2.4-0.104-4.792-0.311-7.131h13.828
		c0.67,2.264,1.03,4.657,1.03,7.131c0,2.474-0.36,4.867-1.03,7.131h-5.669l8.677,4.521c0.214-0.501,0.421-0.996,0.608-1.518
		c0.042-0.089,0.069-0.176,0.097-0.271c1.099-3.091,1.701-6.413,1.701-9.863c0-3.456-0.602-6.779-1.701-9.869
		c-0.028-0.095-0.055-0.184-0.097-0.271C67.595,18.785,56.291,10.496,43.05,10.496c-13.24,0-24.545,8.289-28.789,19.853
		c-0.042,0.088-0.077,0.176-0.097,0.271c-1.106,3.09-1.707,6.413-1.707,9.869c0,3.45,0.601,6.772,1.707,9.863
		c0.028,0.095,0.055,0.183,0.097,0.271c4.245,11.563,15.55,19.853,28.789,19.853c1.853,0,3.671-0.163,5.442-0.481l-2.102-7.395
		C45.152,65.048,43.908,66.18,43.05,66.18z M66.516,29.048H53.898c-0.781-5.26-2.122-9.999-3.996-13.367
		C57.175,17.62,63.204,22.555,66.516,29.048z M38.438,21.484c1.57-4.63,3.443-6.69,4.612-6.69c1.162,0,3.042,2.067,4.612,6.69
		c0.761,2.223,1.363,4.785,1.804,7.564H36.627C37.063,26.269,37.679,23.707,38.438,21.484z M36.192,15.688
		c-1.881,3.369-3.215,8.1-3.996,13.367H19.577C22.89,22.555,28.918,17.62,36.192,15.688z M16.846,40.49
		c0-2.474,0.353-4.867,1.024-7.131h13.827c-0.2,2.339-0.311,4.731-0.311,7.131c0,2.393,0.111,4.792,0.311,7.131H17.87
		C17.192,45.349,16.846,42.964,16.846,40.49z M19.584,51.918h12.618c0.781,5.274,2.116,10.012,3.997,13.374
		C28.918,63.354,22.89,58.411,19.584,51.918z"/>
</g>
</svg>
