<?xml version="1.0" encoding="utf-8"?>
<!-- Generator: Adobe Illustrator 17.0.0, SVG Export Plug-In . SVG Version: 6.00 Build 0)  -->
<!DOCTYPE svg PUBLIC "-//W3C//DTD SVG 1.1//EN" "http://www.w3.org/Graphics/SVG/1.1/DTD/svg11.dtd">
<svg version="1.1" id="Слой_1" xmlns="http://www.w3.org/2000/svg" xmlns:xlink="http://www.w3.org/1999/xlink" x="0px" y="0px"
	 width="87px" height="86.917px" viewBox="0 0 87 86.917" enable-background="new 0 0 87 86.917" xml:space="preserve">
<g>
	
		<linearGradient id="SVGID_1_" gradientUnits="userSpaceOnUse" x1="57.3762" y1="231.7829" x2="125.9732" y2="300.3808" gradientTransform="matrix(1 0 0 -1 -47.66 309.54)">
		<stop  offset="0" style="stop-color:#FBBF1B"/>
		<stop  offset="0.507" style="stop-color:#EE4639"/>
		<stop  offset="0.99" style="stop-color:#8F4196"/>
	</linearGradient>
	<path fill="url(#SVGID_1_)" d="M44.015,85.444C67.203,85.444,86,66.646,86,43.458C86,20.271,67.203,1.473,44.015,1.473
		S2.029,20.271,2.029,43.458C2.029,66.646,20.827,85.444,44.015,85.444z"/>
	<path fill="#FEFEFE" d="M53.251,17.19H33.885c-8.911,0-16.138,7.227-16.138,16.138v19.366c0,8.911,7.227,16.138,16.138,16.138
		h19.366c8.911,0,16.138-7.227,16.138-16.138V33.328C69.389,24.416,62.162,17.19,53.251,17.19z M64.546,52.694
		c0,6.229-5.067,11.297-11.296,11.297H33.885c-6.229,0-11.297-5.068-11.297-11.297V33.328c0-6.229,5.068-11.297,11.297-11.297
		h19.366c6.229,0,11.296,5.068,11.296,11.297V52.694z"/>
	<path fill="#FEFEFE" d="M43.864,30.249c-7.211,0-13.058,5.847-13.058,13.059c0,7.211,5.847,13.058,13.058,13.058
		c7.212,0,13.059-5.847,13.059-13.058C56.923,36.096,51.076,30.249,43.864,30.249z M43.864,51.47c-4.499,0-8.162-3.663-8.162-8.162
		c0-4.503,3.663-8.162,8.162-8.162c4.498,0,8.162,3.659,8.162,8.162C52.026,47.806,48.362,51.47,43.864,51.47z"/>
	<path fill="#FEFEFE" d="M57.517,30.842c0.983,0,1.781-0.798,1.781-1.781c0-0.984-0.798-1.781-1.781-1.781
		c-0.983,0-1.781,0.796-1.781,1.781C55.736,30.045,56.533,30.842,57.517,30.842z"/>
</g>
</svg>
