<?xml version="1.0" encoding="utf-8"?>
<!-- Generator: Adobe Illustrator 17.0.0, SVG Export Plug-In . SVG Version: 6.00 Build 0)  -->
<!DOCTYPE svg PUBLIC "-//W3C//DTD SVG 1.1//EN" "http://www.w3.org/Graphics/SVG/1.1/DTD/svg11.dtd">
<svg version="1.1" id="Слой_1" xmlns="http://www.w3.org/2000/svg" xmlns:xlink="http://www.w3.org/1999/xlink" x="0px" y="0px"
	 width="87px" height="86.917px" viewBox="0 0 87 86.917" enable-background="new 0 0 87 86.917" xml:space="preserve">
<g>
	<path fill="#F59723" d="M43.5,85.444c23.191,0,41.987-18.798,41.987-41.986c0-23.187-18.796-41.985-41.987-41.985
		S1.513,20.271,1.513,43.458C1.513,66.646,20.309,85.444,43.5,85.444z"/>
	<path fill="#FEFEFE" d="M43.541,45.568c7.21,0,13.064-5.85,13.064-13.066s-5.854-13.066-13.064-13.066
		c-7.22,0-13.074,5.85-13.074,13.066C30.477,39.714,36.32,45.559,43.541,45.568z M43.541,25.466c3.886,0,7.027,3.15,7.027,7.036
		s-3.141,7.036-7.027,7.036c-3.886,0-7.037-3.15-7.037-7.036S39.655,25.466,43.541,25.466z"/>
	<path fill="#FEFEFE" d="M56.34,51.759c1.418-0.935,2.274-2.521,2.274-4.221c0.02-1.412-0.775-2.708-2.05-3.328
		c-1.295-0.651-2.856-0.504-4.018,0.378c-5.364,3.914-12.646,3.914-18.021,0c-1.163-0.877-2.713-1.024-4.018-0.378
		c-1.265,0.62-2.06,1.914-2.05,3.325c0.01,1.7,0.857,3.286,2.284,4.222c1.815,1.211,3.804,2.158,5.885,2.814
		c0.357,0.11,0.724,0.212,1.102,0.306l-6.078,5.94c-1.591,1.547-1.632,4.092-0.092,5.686c1.55,1.594,4.1,1.632,5.691,0.086
		c0.031-0.032,0.061-0.064,0.092-0.098l6.201-6.409l6.201,6.421c1.54,1.594,4.09,1.635,5.681,0.09
		c1.601-1.544,1.642-4.09,0.092-5.685c-0.031-0.034-0.061-0.066-0.102-0.098l-6.058-5.935c0.377-0.097,0.745-0.199,1.102-0.308
		C52.536,53.914,54.514,52.969,56.34,51.759z"/>
</g>
</svg>
