<?xml version="1.0" encoding="utf-8"?>
<!-- Generator: Adobe Illustrator 17.0.0, SVG Export Plug-In . SVG Version: 6.00 Build 0)  -->
<!DOCTYPE svg PUBLIC "-//W3C//DTD SVG 1.1//EN" "http://www.w3.org/Graphics/SVG/1.1/DTD/svg11.dtd">
<svg version="1.1" id="Слой_1" xmlns="http://www.w3.org/2000/svg" xmlns:xlink="http://www.w3.org/1999/xlink" x="0px" y="0px"
	 width="87px" height="86.917px" viewBox="0 0 87 86.917" enable-background="new 0 0 87 86.917" xml:space="preserve">
<g>
	<path fill="#4D76A1" d="M43.5,85.444c23.187,0,41.986-18.798,41.986-41.986c0-23.187-18.799-41.985-41.986-41.985
		c-23.188,0-41.986,18.798-41.986,41.985C1.514,66.646,20.312,85.444,43.5,85.444z"/>
	<path fill="#FEFEFE" d="M41.914,61.873h3.295c0,0,0.995-0.11,1.503-0.658c0.468-0.503,0.453-1.447,0.453-1.447
		s-0.064-4.422,1.988-5.073c2.023-0.642,4.621,4.273,7.374,6.163c2.083,1.431,3.664,1.117,3.664,1.117l7.362-0.102
		c0,0,3.852-0.238,2.025-3.266c-0.15-0.248-1.064-2.241-5.474-6.334c-4.617-4.284-3.999-3.592,1.562-11.003
		c3.387-4.514,4.74-7.269,4.317-8.45c-0.403-1.124-2.893-0.827-2.893-0.827l-8.29,0.052c0,0-0.614-0.084-1.07,0.189
		C57.286,32.501,57,33.124,57,33.124s-1.312,3.492-3.062,6.463c-3.692,6.268-5.168,6.599-5.77,6.21
		c-1.403-0.907-1.054-3.644-1.054-5.589c0-6.074,0.922-8.607-1.794-9.262c-0.901-0.218-1.564-0.361-3.868-0.384
		c-2.958-0.031-5.461,0.009-6.879,0.704c-0.943,0.461-1.671,1.49-1.228,1.549c0.549,0.073,1.789,0.335,2.447,1.231
		c0.85,1.155,0.82,3.751,0.82,3.751s0.487,7.15-1.14,8.039c-1.117,0.609-2.65-0.635-5.941-6.322c-1.687-2.913-2.96-6.132-2.96-6.132
		s-0.246-0.602-0.683-0.924c-0.531-0.39-1.274-0.514-1.274-0.514l-7.877,0.052c0,0-1.182,0.033-1.616,0.547
		c-0.387,0.458-0.031,1.403-0.031,1.403s6.167,14.429,13.15,21.699C34.643,62.311,41.914,61.873,41.914,61.873z"/>
</g>
</svg>
